<?xml version="1.0" encoding="UTF-8"?>
<svg width="741px" height="717px" viewBox="0 0 741 717" version="1.1" xmlns="http://www.w3.org/2000/svg" xmlns:xlink="http://www.w3.org/1999/xlink">
    <!-- Generator: Sketch 55 (78076) - https://sketchapp.com -->
    <title>Group 548</title>
    <desc>Created with Sketch.</desc>
    <defs>
        <polygon id="path-1" points="0.113703333 0.21364 6.71073667 0.21364 6.71073667 7 0.113703333 7"></polygon>
        <polygon id="path-3" points="0.81056 0.21364 7.27296 0.21364 7.27296 7 0.81056 7"></polygon>
        <polygon id="path-5" points="0.37436 0.21364 6.97139333 0.21364 6.97139333 7 0.37436 7"></polygon>
        <polygon id="path-7" points="0.102984 0.21364 6.888504 0.21364 6.888504 7 0.102984 7"></polygon>
        <polygon id="path-9" points="0 0.162064 4.43175 0.162064 4.43175 6.798064 0 6.798064"></polygon>
        <polygon id="path-11" points="0.37436 0.258066667 6.97139333 0.258066667 6.97139333 6.85477333 0.37436 6.85477333"></polygon>
        <polygon id="path-13" points="0.19936 0.258066667 6.98488 0.258066667 6.98488 6.85477333 0.19936 6.85477333"></polygon>
        <polygon id="path-15" points="0.81056 0.258066667 7.27296 0.258066667 7.27296 6.85477333 0.81056 6.85477333"></polygon>
        <polygon id="path-17" points="0.102984 0.258066667 6.888504 0.258066667 6.888504 6.85477333 0.102984 6.85477333"></polygon>
        <polygon id="path-19" points="0.113703333 0.258066667 6.71073667 0.258066667 6.71073667 6.85477333 0.113703333 6.85477333"></polygon>
        <polygon id="path-21" points="0.54176 0.258066667 7.00416 0.258066667 7.00416 6.85477333 0.54176 6.85477333"></polygon>
    </defs>
    <g id="Website" stroke="none" stroke-width="1" fill="none" fill-rule="evenodd" opacity="0.6">
        <g id="Landing-5" transform="translate(-598.000000, -98.000000)">
            <g id="Group-548" transform="translate(598.000000, 98.000000)">
                <g id="Group-3" transform="translate(402.000000, 710.000000)">
                    <mask id="mask-2" fill="white">
                        <use xlink:href="#path-1"></use>
                    </mask>
                    <g id="Clip-2"></g>
                    <path d="M0.113703333,3.60724 C0.113703333,5.47876 1.59023667,7.00084 3.41303667,7.00084 C5.23420333,7.00084 6.71073667,5.47876 6.71073667,3.60724 C6.71073667,1.73404 5.23420333,0.21364 3.41303667,0.21364 C1.59023667,0.21364 0.113703333,1.73404 0.113703333,3.60724" id="Fill-1" fill="#D7DCF9" mask="url(#mask-2)"></path>
                </g>
                <g id="Group-6" transform="translate(363.000000, 710.000000)">
                    <mask id="mask-4" fill="white">
                        <use xlink:href="#path-3"></use>
                    </mask>
                    <g id="Clip-5"></g>
                    <path d="M0.81056,3.60724 C0.81056,5.47876 2.25696,7.00084 4.04256,7.00084 C5.82656,7.00084 7.27296,5.47876 7.27296,3.60724 C7.27296,1.73404 5.82656,0.21364 4.04256,0.21364 C2.25696,0.21364 0.81056,1.73404 0.81056,3.60724" id="Fill-4" fill="#D7DCF9" mask="url(#mask-4)"></path>
                </g>
                <path d="M292,713.608984 C292,714.652374 292.438475,715.586779 293.126516,716.247831 C294.299827,716.499745 295.473137,716.757019 296.65338,717 C298.015598,716.506891 299,715.181215 299,713.608984 C299,711.616896 297.433276,710 295.500867,710 C293.566724,710 292,711.616896 292,713.608984" id="Fill-7" fill="#D7DCF9"></path>
                <g id="Group-11" transform="translate(328.000000, 710.000000)">
                    <mask id="mask-6" fill="white">
                        <use xlink:href="#path-5"></use>
                    </mask>
                    <g id="Clip-10"></g>
                    <path d="M0.37436,3.60724 C0.37436,3.86932 0.410293333,4.12468 0.465826667,4.36828 C0.478893333,4.43044 0.50176,4.48588 0.518093333,4.54804 C0.571993333,4.73452 0.635693333,4.91428 0.71736,5.089 C0.743493333,5.1394 0.769626667,5.18644 0.79576,5.23684 C0.89376,5.41828 1.00646,5.58964 1.13386,5.74924 C1.15672667,5.77612 1.17632667,5.803 1.19756,5.8282 C1.80352667,6.54052 2.68226,7.00084 3.67369333,7.00084 C4.69452667,7.00084 5.59612667,6.51196 6.20209333,5.761 C6.22822667,5.7274 6.25762667,5.6938 6.28376,5.65852 C6.47812667,5.39644 6.63656,5.11084 6.75089333,4.79668 C6.77049333,4.74628 6.78192667,4.69252 6.79826,4.64212 C6.90116,4.3162 6.96976,3.97348 6.97139333,3.61228 L6.97139333,3.60724 C6.97139333,1.73404 5.49486,0.21364 3.67369333,0.21364 C1.85089333,0.21364 0.37436,1.73404 0.37436,3.60724" id="Fill-9" fill="#D7DCF9" mask="url(#mask-6)"></path>
                </g>
                <g id="Group-14" transform="translate(438.000000, 710.000000)">
                    <mask id="mask-8" fill="white">
                        <use xlink:href="#path-7"></use>
                    </mask>
                    <g id="Clip-13"></g>
                    <path d="M0.102984,3.60724 L0.102984,3.61228 C0.104664,3.97348 0.176904,4.3162 0.281064,4.64212 C0.297864,4.69252 0.311304,4.74628 0.329784,4.79668 C0.447384,5.11084 0.612024,5.39644 0.811944,5.65852 C0.837144,5.6938 0.865704,5.7274 0.895944,5.761 C1.517544,6.51196 2.444904,7.00084 3.496584,7.00084 C4.516344,7.00084 5.418504,6.54052 6.041784,5.8282 L6.105624,5.74924 C6.238344,5.58964 6.354264,5.41828 6.453384,5.23684 C6.481944,5.18644 6.508824,5.1394 6.535704,5.08732 C6.619704,4.91428 6.685224,4.7362 6.738984,4.54972 C6.757464,4.48756 6.782664,4.43044 6.796104,4.36828 C6.853224,4.123 6.888504,3.86932 6.888504,3.60724 C6.888504,1.73404 5.369784,0.21364 3.496584,0.21364 C1.621704,0.21364 0.102984,1.73404 0.102984,3.60724" id="Fill-12" fill="#D7DCF9" mask="url(#mask-8)"></path>
                </g>
                <path d="M216,665.5 C216,667.431931 217.566724,669 219.500867,669 C221.433276,669 223,667.431931 223,665.5 C223,663.568069 221.433276,662 219.500867,662 C217.566724,662 216,663.568069 216,665.5" id="Fill-15" fill="#D7DCF9"></path>
                <path d="M255,665.5 C255,667.431931 256.566724,669 258.499133,669 C260.433276,669 262,667.431931 262,665.5 C262,663.568069 260.433276,662 258.499133,662 C256.566724,662 255,663.568069 255,665.5" id="Fill-17" fill="#D7DCF9"></path>
                <path d="M180,665.5 C180,667.431931 181.566724,669 183.500867,669 C185.433276,669 187,667.431931 187,665.5 C187,663.568069 185.433276,662 183.500867,662 C181.566724,662 180,663.568069 180,665.5" id="Fill-19" fill="#D7DCF9"></path>
                <path d="M402,665.5 C402,667.431931 403.566724,669 405.500867,669 C407.433276,669 409,667.431931 409,665.5 C409,663.568069 407.433276,662 405.500867,662 C403.566724,662 402,663.568069 402,665.5" id="Fill-21" fill="#D7DCF9"></path>
                <path d="M438,665.5 C438,667.431931 439.566724,669 441.500867,669 C443.433276,669 445,667.431931 445,665.5 C445,663.568069 443.433276,662 441.500867,662 C439.566724,662 438,663.568069 438,665.5" id="Fill-23" fill="#D7DCF9"></path>
                <path d="M292,665.5 C292,667.431931 293.566724,669 295.500867,669 C297.433276,669 299,667.431931 299,665.5 C299,663.568069 297.433276,662 295.500867,662 C293.566724,662 292,663.568069 292,665.5" id="Fill-25" fill="#D7DCF9"></path>
                <path d="M366,665.5 C366,667.431931 367.566724,669 369.500867,669 C371.433276,669 373,667.431931 373,665.5 C373,663.568069 371.433276,662 369.500867,662 C367.566724,662 366,663.568069 366,665.5" id="Fill-27" fill="#D7DCF9"></path>
                <path d="M327,665.5 C327,667.431931 328.566724,669 330.500867,669 C332.433276,669 334,667.431931 334,665.5 C334,663.568069 332.433276,662 330.500867,662 C328.566724,662 327,663.568069 327,665.5" id="Fill-29" fill="#D7DCF9"></path>
                <path d="M292,617.5 C292,619.431931 293.566724,621 295.500867,621 C297.433276,621 299,619.431931 299,617.5 C299,615.568069 297.433276,614 295.500867,614 C293.566724,614 292,615.568069 292,617.5" id="Fill-31" fill="#D7DCF9"></path>
                <path d="M366,617.5 C366,619.431931 367.566724,621 369.500867,621 C371.433276,621 373,619.431931 373,617.5 C373,615.568069 371.433276,614 369.500867,614 C367.566724,614 366,615.568069 366,617.5" id="Fill-33" fill="#D7DCF9"></path>
                <path d="M327,617.5 C327,619.431931 328.566724,621 330.500867,621 C332.433276,621 334,619.431931 334,617.5 C334,615.568069 332.433276,614 330.500867,614 C328.566724,614 327,615.568069 327,617.5" id="Fill-35" fill="#D7DCF9"></path>
                <path d="M180,617.5 C180,619.431931 181.566724,621 183.500867,621 C185.433276,621 187,619.431931 187,617.5 C187,615.568069 185.433276,614 183.500867,614 C181.566724,614 180,615.568069 180,617.5" id="Fill-37" fill="#D7DCF9"></path>
                <path d="M255,617.5 C255,619.431931 256.566724,621 258.499133,621 C260.433276,621 262,619.431931 262,617.5 C262,615.568069 260.433276,614 258.499133,614 C256.566724,614 255,615.568069 255,617.5" id="Fill-39" fill="#D7DCF9"></path>
                <path d="M402,617.5 C402,619.431931 403.566724,621 405.500867,621 C407.433276,621 409,619.431931 409,617.5 C409,615.568069 407.433276,614 405.500867,614 C403.566724,614 402,615.568069 402,617.5" id="Fill-41" fill="#D7DCF9"></path>
                <path d="M216,617.5 C216,619.431931 217.566724,621 219.500867,621 C221.433276,621 223,619.431931 223,617.5 C223,615.568069 221.433276,614 219.500867,614 C217.566724,614 216,615.568069 216,617.5" id="Fill-43" fill="#D7DCF9"></path>
                <path d="M113.938643,621 C114.59115,620.257007 115,619.288611 115,618.215862 C115,615.88879 113.133333,614 110.830973,614 C109.732448,614 108.743363,614.436196 108,615.137448 C109.957522,617.113894 111.946018,619.059034 113.938643,621" id="Fill-45" fill="#D7DCF9"></path>
                <path d="M145,617.5 C145,619.431931 146.566724,621 148.499133,621 C150.433276,621 152,619.431931 152,617.5 C152,615.568069 150.433276,614 148.499133,614 C146.566724,614 145,615.568069 145,617.5" id="Fill-47" fill="#D7DCF9"></path>
                <path d="M438,617.5 C438,619.431931 439.566724,621 441.500867,621 C443.433276,621 445,619.431931 445,617.5 C445,615.568069 443.433276,614 441.500867,614 C439.566724,614 438,615.568069 438,617.5" id="Fill-49" fill="#D7DCF9"></path>
                <path d="M292,571.5 C292,573.431931 293.566724,575 295.500867,575 C297.433276,575 299,573.431931 299,571.5 C299,569.568069 297.433276,568 295.500867,568 C293.566724,568 292,569.568069 292,571.5" id="Fill-51" fill="#D7DCF9"></path>
                <path d="M366,571.5 C366,573.431931 367.566724,575 369.500867,575 C371.433276,575 373,573.431931 373,571.5 C373,569.568069 371.433276,568 369.500867,568 C367.566724,568 366,569.568069 366,571.5" id="Fill-53" fill="#D7DCF9"></path>
                <path d="M327,571.5 C327,573.431931 328.566724,575 330.500867,575 C332.433276,575 334,573.431931 334,571.5 C334,569.568069 332.433276,568 330.500867,568 C328.566724,568 327,569.568069 327,571.5" id="Fill-55" fill="#D7DCF9"></path>
                <path d="M216,571.5 C216,573.431931 217.566724,575 219.500867,575 C221.433276,575 223,573.431931 223,571.5 C223,569.568069 221.433276,568 219.500867,568 C217.566724,568 216,569.568069 216,571.5" id="Fill-57" fill="#D7DCF9"></path>
                <path d="M106,571.5 C106,573.431931 107.566337,575 109.5,575 C111.431931,575 113,573.431931 113,571.5 C113,569.568069 111.431931,568 109.5,568 C107.566337,568 106,569.568069 106,571.5" id="Fill-59" fill="#D7DCF9"></path>
                <path d="M145,571.5 C145,573.431931 146.566724,575 148.499133,575 C150.433276,575 152,573.431931 152,571.5 C152,569.568069 150.433276,568 148.499133,568 C146.566724,568 145,569.568069 145,571.5" id="Fill-61" fill="#D7DCF9"></path>
                <path d="M180,571.5 C180,573.431931 181.566724,575 183.500867,575 C185.433276,575 187,573.431931 187,571.5 C187,569.568069 185.433276,568 183.500867,568 C181.566724,568 180,569.568069 180,571.5" id="Fill-63" fill="#D7DCF9"></path>
                <path d="M255,571.5 C255,573.431931 256.566724,575 258.499133,575 C260.433276,575 262,573.431931 262,571.5 C262,569.568069 260.433276,568 258.499133,568 C256.566724,568 255,569.568069 255,571.5" id="Fill-65" fill="#D7DCF9"></path>
                <path d="M438,571.5 C438,573.431931 439.566724,575 441.500867,575 C443.433276,575 445,573.431931 445,571.5 C445,569.568069 443.433276,568 441.500867,568 C439.566724,568 438,569.568069 438,571.5" id="Fill-67" fill="#D7DCF9"></path>
                <path d="M402,571.5 C402,573.431931 403.566724,575 405.500867,575 C407.433276,575 409,573.431931 409,571.5 C409,569.568069 407.433276,568 405.500867,568 C403.566724,568 402,569.568069 402,571.5" id="Fill-69" fill="#D7DCF9"></path>
                <path d="M69,571.5 C69,571.654208 69.0259965,571.799752 69.0450607,571.950495 C69.7036395,572.85495 70.3587522,573.764604 71.0259965,574.663861 C71.47487,574.873515 71.9705373,575 72.5008666,575 C74.4332756,575 76,573.431931 76,571.5 C76,569.568069 74.4332756,568 72.5008666,568 C70.5667244,568 69,569.568069 69,571.5" id="Fill-71" fill="#D7DCF9"></path>
                <path d="M438,524.5 C438,526.431931 439.566724,528 441.500867,528 C443.433276,528 445,526.431931 445,524.5 C445,522.568069 443.433276,521 441.500867,521 C439.566724,521 438,522.568069 438,524.5" id="Fill-73" fill="#D7DCF9"></path>
                <path d="M402,524.5 C402,526.431931 403.566724,528 405.500867,528 C407.433276,528 409,526.431931 409,524.5 C409,522.568069 407.433276,521 405.500867,521 C403.566724,521 402,522.568069 402,524.5" id="Fill-75" fill="#D7DCF9"></path>
                <path d="M180,524.5 C180,526.431931 181.566724,528 183.500867,528 C185.433276,528 187,526.431931 187,524.5 C187,522.568069 185.433276,521 183.500867,521 C181.566724,521 180,522.568069 180,524.5" id="Fill-77" fill="#D7DCF9"></path>
                <path d="M145,524.5 C145,526.431931 146.566724,528 148.499133,528 C150.433276,528 152,526.431931 152,524.5 C152,522.568069 150.433276,521 148.499133,521 C146.566724,521 145,522.568069 145,524.5" id="Fill-79" fill="#D7DCF9"></path>
                <path d="M216,524.5 C216,526.431931 217.566724,528 219.500867,528 C221.433276,528 223,526.431931 223,524.5 C223,522.568069 221.433276,521 219.500867,521 C217.566724,521 216,522.568069 216,524.5" id="Fill-81" fill="#D7DCF9"></path>
                <path d="M366,524.5 C366,526.431931 367.566724,528 369.500867,528 C371.433276,528 373,526.431931 373,524.5 C373,522.568069 371.433276,521 369.500867,521 C367.566724,521 366,522.568069 366,524.5" id="Fill-83" fill="#D7DCF9"></path>
                <path d="M327,524.5 C327,526.431931 328.566724,528 330.500867,528 C332.433276,528 334,526.431931 334,524.5 C334,522.568069 332.433276,521 330.500867,521 C328.566724,521 327,522.568069 327,524.5" id="Fill-85" fill="#D7DCF9"></path>
                <path d="M292,524.5 C292,526.431931 293.566724,528 295.500867,528 C297.433276,528 299,526.431931 299,524.5 C299,522.568069 297.433276,521 295.500867,521 C293.566724,521 292,522.568069 292,524.5" id="Fill-87" fill="#D7DCF9"></path>
                <path d="M255,524.5 C255,526.431931 256.566724,528 258.499133,528 C260.433276,528 262,526.431931 262,524.5 C262,522.568069 260.433276,521 258.499133,521 C256.566724,521 255,522.568069 255,524.5" id="Fill-89" fill="#D7DCF9"></path>
                <path d="M106,524.5 C106,526.431931 107.566337,528 109.5,528 C111.431931,528 113,526.431931 113,524.5 C113,522.568069 111.431931,521 109.5,521 C107.566337,521 106,522.568069 106,524.5" id="Fill-91" fill="#D7DCF9"></path>
                <path d="M69,524.5 C69,526.431931 70.5667244,528 72.5008666,528 C74.4332756,528 76,526.431931 76,524.5 C76,522.568069 74.4332756,521 72.5008666,521 C70.5667244,521 69,522.568069 69,524.5" id="Fill-93" fill="#D7DCF9"></path>
                <path d="M402,476.5 C402,478.431931 403.566724,480 405.500867,480 C407.433276,480 409,478.431931 409,476.5 C409,474.568069 407.433276,473 405.500867,473 C403.566724,473 402,474.568069 402,476.5" id="Fill-95" fill="#D7DCF9"></path>
                <path d="M366,476.5 C366,478.431931 367.566724,480 369.500867,480 C371.433276,480 373,478.431931 373,476.5 C373,474.568069 371.433276,473 369.500867,473 C367.566724,473 366,474.568069 366,476.5" id="Fill-97" fill="#D7DCF9"></path>
                <path d="M438,476.5 C438,478.431931 439.566724,480 441.500867,480 C443.433276,480 445,478.431931 445,476.5 C445,474.568069 443.433276,473 441.500867,473 C439.566724,473 438,474.568069 438,476.5" id="Fill-99" fill="#D7DCF9"></path>
                <path d="M292,476.5 C292,478.431931 293.566724,480 295.500867,480 C297.433276,480 299,478.431931 299,476.5 C299,474.568069 297.433276,473 295.500867,473 C293.566724,473 292,474.568069 292,476.5" id="Fill-101" fill="#D7DCF9"></path>
                <path d="M327,476.5 C327,478.431931 328.566724,480 330.500867,480 C332.433276,480 334,478.431931 334,476.5 C334,474.568069 332.433276,473 330.500867,473 C328.566724,473 327,474.568069 327,476.5" id="Fill-103" fill="#D7DCF9"></path>
                <path d="M255,476.5 C255,478.431931 256.566724,480 258.499133,480 C260.433276,480 262,478.431931 262,476.5 C262,474.568069 260.433276,473 258.499133,473 C256.566724,473 255,474.568069 255,476.5" id="Fill-105" fill="#D7DCF9"></path>
                <path d="M106,476.5 C106,478.431931 107.566337,480 109.5,480 C111.431931,480 113,478.431931 113,476.5 C113,474.568069 111.431931,473 109.5,473 C107.566337,473 106,474.568069 106,476.5" id="Fill-107" fill="#D7DCF9"></path>
                <path d="M33,476.5 C33,478.431931 34.5667244,480 36.5008666,480 C38.4332756,480 40,478.431931 40,476.5 C40,474.568069 38.4332756,473 36.5008666,473 C34.5667244,473 33,474.568069 33,476.5" id="Fill-109" fill="#D7DCF9"></path>
                <path d="M69,476.5 C69,478.431931 70.5667244,480 72.5008666,480 C74.4332756,480 76,478.431931 76,476.5 C76,474.568069 74.4332756,473 72.5008666,473 C70.5667244,473 69,474.568069 69,476.5" id="Fill-111" fill="#D7DCF9"></path>
                <path d="M216,476.5 C216,478.431931 217.566724,480 219.500867,480 C221.433276,480 223,478.431931 223,476.5 C223,474.568069 221.433276,473 219.500867,473 C217.566724,473 216,474.568069 216,476.5" id="Fill-113" fill="#D7DCF9"></path>
                <path d="M145,476.5 C145,478.431931 146.566724,480 148.499133,480 C150.433276,480 152,478.431931 152,476.5 C152,474.568069 150.433276,473 148.499133,473 C146.566724,473 145,474.568069 145,476.5" id="Fill-115" fill="#D7DCF9"></path>
                <path d="M180,476.5 C180,478.431931 181.566724,480 183.500867,480 C185.433276,480 187,478.431931 187,476.5 C187,474.568069 185.433276,473 183.500867,473 C181.566724,473 180,474.568069 180,476.5" id="Fill-117" fill="#D7DCF9"></path>
                <path d="M292,430.5 C292,432.431931 293.566724,434 295.500867,434 C297.433276,434 299,432.431931 299,430.5 C299,428.568069 297.433276,427 295.500867,427 C293.566724,427 292,428.568069 292,430.5" id="Fill-119" fill="#D7DCF9"></path>
                <path d="M255,430.5 C255,432.431931 256.566724,434 258.499133,434 C260.433276,434 262,432.431931 262,430.5 C262,428.568069 260.433276,427 258.499133,427 C256.566724,427 255,428.568069 255,430.5" id="Fill-121" fill="#D7DCF9"></path>
                <path d="M33,430.5 C33,432.431931 34.5667244,434 36.5008666,434 C38.4332756,434 40,432.431931 40,430.5 C40,428.568069 38.4332756,427 36.5008666,427 C34.5667244,427 33,428.568069 33,430.5" id="Fill-123" fill="#D7DCF9"></path>
                <path d="M216,430.5 C216,432.431931 217.566724,434 219.500867,434 C221.433276,434 223,432.431931 223,430.5 C223,428.568069 221.433276,427 219.500867,427 C217.566724,427 216,428.568069 216,430.5" id="Fill-125" fill="#D7DCF9"></path>
                <path d="M366,430.5 C366,432.431931 367.566724,434 369.500867,434 C371.433276,434 373,432.431931 373,430.5 C373,428.568069 371.433276,427 369.500867,427 C367.566724,427 366,428.568069 366,430.5" id="Fill-127" fill="#D7DCF9"></path>
                <path d="M145,430.5 C145,432.431931 146.566724,434 148.499133,434 C150.433276,434 152,432.431931 152,430.5 C152,428.568069 150.433276,427 148.499133,427 C146.566724,427 145,428.568069 145,430.5" id="Fill-129" fill="#D7DCF9"></path>
                <path d="M106,430.5 C106,432.431931 107.566337,434 109.5,434 C111.431931,434 113,432.431931 113,430.5 C113,428.568069 111.431931,427 109.5,427 C107.566337,427 106,428.568069 106,430.5" id="Fill-131" fill="#D7DCF9"></path>
                <path d="M180,430.5 C180,432.431931 181.566724,434 183.500867,434 C185.433276,434 187,432.431931 187,430.5 C187,428.568069 185.433276,427 183.500867,427 C181.566724,427 180,428.568069 180,430.5" id="Fill-133" fill="#D7DCF9"></path>
                <path d="M402,430.5 C402,432.431931 403.566724,434 405.500867,434 C407.433276,434 409,432.431931 409,430.5 C409,428.568069 407.433276,427 405.500867,427 C403.566724,427 402,428.568069 402,430.5" id="Fill-135" fill="#D7DCF9"></path>
                <path d="M327,430.5 C327,432.431931 328.566724,434 330.500867,434 C332.433276,434 334,432.431931 334,430.5 C334,428.568069 332.433276,427 330.500867,427 C328.566724,427 327,428.568069 327,430.5" id="Fill-137" fill="#D7DCF9"></path>
                <path d="M438,430.5 C438,432.431931 439.566724,434 441.500867,434 C443.433276,434 445,432.431931 445,430.5 C445,428.568069 443.433276,427 441.500867,427 C439.566724,427 438,428.568069 438,430.5" id="Fill-139" fill="#D7DCF9"></path>
                <path d="M69,430.5 C69,432.431931 70.5667244,434 72.5008666,434 C74.4332756,434 76,432.431931 76,430.5 C76,428.568069 74.4332756,427 72.5008666,427 C70.5667244,427 69,428.568069 69,430.5" id="Fill-141" fill="#D7DCF9"></path>
                <path d="M2,382.571576 C2,381.609371 1.73057644,380.665286 1.2593985,379.98395 C0.914786967,379.487445 0.472431078,379.148589 0,379 C0.0989974937,381.337561 0.201754386,383.671499 0.329573935,386 C0.675438596,385.816982 0.996240602,385.539736 1.2593985,385.161015 C1.73057644,384.479679 2,383.535594 2,382.571576" id="Fill-143" fill="#D7DCF9"></path>
                <path d="M366,382.499134 C366,384.430586 367.566724,386 369.500867,386 C371.433276,386 373,384.430586 373,382.499134 C373,380.567681 371.433276,379 369.500867,379 C367.566724,379 366,380.567681 366,382.499134" id="Fill-145" fill="#D7DCF9"></path>
                <path d="M327,382.499134 C327,384.430586 328.566724,386 330.500867,386 C332.433276,386 334,384.430586 334,382.499134 C334,380.567681 332.433276,379 330.500867,379 C328.566724,379 327,380.567681 327,382.499134" id="Fill-147" fill="#D7DCF9"></path>
                <path d="M292,382.499134 C292,384.430586 293.566724,386 295.500867,386 C297.433276,386 299,384.430586 299,382.499134 C299,380.567681 297.433276,379 295.500867,379 C293.566724,379 292,380.567681 292,382.499134" id="Fill-149" fill="#D7DCF9"></path>
                <path d="M402,382.499134 C402,384.430586 403.566724,386 405.500867,386 C407.433276,386 409,384.430586 409,382.499134 C409,380.567681 407.433276,379 405.500867,379 C403.566724,379 402,380.567681 402,382.499134" id="Fill-151" fill="#D7DCF9"></path>
                <path d="M438,382.499134 C438,384.430586 439.566724,386 441.500867,386 C443.433276,386 445,384.430586 445,382.499134 C445,380.567681 443.433276,379 441.500867,379 C439.566724,379 438,380.567681 438,382.499134" id="Fill-153" fill="#D7DCF9"></path>
                <path d="M33,382.499134 C33,384.430586 34.5667244,386 36.5008666,386 C38.4332756,386 40,384.430586 40,382.499134 C40,380.567681 38.4332756,379 36.5008666,379 C34.5667244,379 33,380.567681 33,382.499134" id="Fill-155" fill="#D7DCF9"></path>
                <path d="M69,382.499134 C69,384.430586 70.5667244,386 72.5008666,386 C74.4332756,386 76,384.430586 76,382.499134 C76,380.567681 74.4332756,379 72.5008666,379 C70.5667244,379 69,380.567681 69,382.499134" id="Fill-157" fill="#D7DCF9"></path>
                <path d="M145,382.499134 C145,384.430586 146.566724,386 148.499133,386 C150.433276,386 152,384.430586 152,382.499134 C152,380.567681 150.433276,379 148.499133,379 C146.566724,379 145,380.567681 145,382.499134" id="Fill-159" fill="#D7DCF9"></path>
                <path d="M180,382.499134 C180,384.430586 181.566724,386 183.500867,386 C185.433276,386 187,384.430586 187,382.499134 C187,380.567681 185.433276,379 183.500867,379 C181.566724,379 180,380.567681 180,382.499134" id="Fill-161" fill="#D7DCF9"></path>
                <path d="M216,382.499134 C216,384.430586 217.566724,386 219.500867,386 C221.433276,386 223,384.430586 223,382.499134 C223,380.567681 221.433276,379 219.500867,379 C217.566724,379 216,380.567681 216,382.499134" id="Fill-163" fill="#D7DCF9"></path>
                <path d="M255,382.499134 C255,384.430586 256.566724,386 258.499133,386 C260.433276,386 262,384.430586 262,382.499134 C262,380.567681 260.433276,379 258.499133,379 C256.566724,379 255,380.567681 255,382.499134" id="Fill-165" fill="#D7DCF9"></path>
                <path d="M106,382.499134 C106,384.430586 107.566337,386 109.5,386 C111.431931,386 113,384.430586 113,382.499134 C113,380.567681 111.431931,379 109.5,379 C107.566337,379 106,380.567681 106,382.499134" id="Fill-167" fill="#D7DCF9"></path>
                <g id="Group-171" transform="translate(0.000000, 331.000000)">
                    <mask id="mask-10" fill="white">
                        <use xlink:href="#path-9"></use>
                    </mask>
                    <g id="Clip-170"></g>
                    <path d="M4.43175,3.446464 C4.43175,2.554384 3.89425,1.680784 2.95425,1.047424 C2.29925,0.610624 1.46425,0.309904 0.57425,0.162064 C0.35925,2.369584 0.15425,4.580464 -0.00075,6.798064 C1.10675,6.703984 2.15925,6.379744 2.95425,5.847184 C3.89425,5.213824 4.43175,4.340224 4.43175,3.446464" id="Fill-169" fill="#D7DCF9" mask="url(#mask-10)"></path>
                </g>
                <path d="M327,334.499134 C327,336.432319 328.566724,338 330.500867,338 C332.433276,338 334,336.432319 334,334.499134 C334,332.567681 332.433276,331 330.500867,331 C328.566724,331 327,332.567681 327,334.499134" id="Fill-172" fill="#D7DCF9"></path>
                <path d="M292,334.499134 C292,336.432319 293.566724,338 295.500867,338 C297.433276,338 299,336.432319 299,334.499134 C299,332.567681 297.433276,331 295.500867,331 C293.566724,331 292,332.567681 292,334.499134" id="Fill-174" fill="#D7DCF9"></path>
                <path d="M216,334.499134 C216,336.432319 217.566724,338 219.500867,338 C221.433276,338 223,336.432319 223,334.499134 C223,332.567681 221.433276,331 219.500867,331 C217.566724,331 216,332.567681 216,334.499134" id="Fill-176" fill="#D7DCF9"></path>
                <path d="M180,334.499134 C180,336.432319 181.566724,338 183.500867,338 C185.433276,338 187,336.432319 187,334.499134 C187,332.567681 185.433276,331 183.500867,331 C181.566724,331 180,332.567681 180,334.499134" id="Fill-178" fill="#D7DCF9"></path>
                <path d="M145,334.499134 C145,336.432319 146.566724,338 148.499133,338 C150.433276,338 152,336.432319 152,334.499134 C152,332.567681 150.433276,331 148.499133,331 C146.566724,331 145,332.567681 145,334.499134" id="Fill-180" fill="#D7DCF9"></path>
                <path d="M402,334.499134 C402,336.432319 403.566724,338 405.500867,338 C407.433276,338 409,336.432319 409,334.499134 C409,332.567681 407.433276,331 405.500867,331 C403.566724,331 402,332.567681 402,334.499134" id="Fill-182" fill="#D7DCF9"></path>
                <path d="M366,334.499134 C366,336.432319 367.566724,338 369.500867,338 C371.433276,338 373,336.432319 373,334.499134 C373,332.567681 371.433276,331 369.500867,331 C367.566724,331 366,332.567681 366,334.499134" id="Fill-184" fill="#D7DCF9"></path>
                <path d="M438,334.499134 C438,336.432319 439.566724,338 441.500867,338 C443.433276,338 445,336.432319 445,334.499134 C445,332.567681 443.433276,331 441.500867,331 C439.566724,331 438,332.567681 438,334.499134" id="Fill-186" fill="#D7DCF9"></path>
                <path d="M106,334.499134 C106,336.432319 107.566337,338 109.5,338 C111.431931,338 113,336.432319 113,334.499134 C113,332.567681 111.431931,331 109.5,331 C107.566337,331 106,332.567681 106,334.499134" id="Fill-188" fill="#D7DCF9"></path>
                <path d="M255,334.499134 C255,336.432319 256.566724,338 258.499133,338 C260.433276,338 262,336.432319 262,334.499134 C262,332.567681 260.433276,331 258.499133,331 C256.566724,331 255,332.567681 255,334.499134" id="Fill-190" fill="#D7DCF9"></path>
                <path d="M69,334.499134 C69,336.432319 70.5667244,338 72.5008666,338 C74.4332756,338 76,336.432319 76,334.499134 C76,332.567681 74.4332756,331 72.5008666,331 C70.5667244,331 69,332.567681 69,334.499134" id="Fill-192" fill="#D7DCF9"></path>
                <path d="M33,334.499134 C33,336.432319 34.5667244,338 36.5008666,338 C38.4332756,338 40,336.432319 40,334.499134 C40,332.567681 38.4332756,331 36.5008666,331 C34.5667244,331 33,332.567681 33,334.499134" id="Fill-194" fill="#D7DCF9"></path>
                <path d="M438,286.5 C438,288.431931 439.566724,290 441.500867,290 C443.433276,290 445,288.431931 445,286.5 C445,284.568069 443.433276,283 441.500867,283 C439.566724,283 438,284.568069 438,286.5" id="Fill-196" fill="#D7DCF9"></path>
                <path d="M292,286.5 C292,288.431931 293.566724,290 295.500867,290 C297.433276,290 299,288.431931 299,286.5 C299,284.568069 297.433276,283 295.500867,283 C293.566724,283 292,284.568069 292,286.5" id="Fill-198" fill="#D7DCF9"></path>
                <path d="M402,286.5 C402,288.431931 403.566724,290 405.500867,290 C407.433276,290 409,288.431931 409,286.5 C409,284.568069 407.433276,283 405.500867,283 C403.566724,283 402,284.568069 402,286.5" id="Fill-200" fill="#D7DCF9"></path>
                <path d="M327,286.5 C327,288.431931 328.566724,290 330.500867,290 C332.433276,290 334,288.431931 334,286.5 C334,284.568069 332.433276,283 330.500867,283 C328.566724,283 327,284.568069 327,286.5" id="Fill-202" fill="#D7DCF9"></path>
                <path d="M255,286.5 C255,288.431931 256.566724,290 258.499133,290 C260.433276,290 262,288.431931 262,286.5 C262,284.568069 260.433276,283 258.499133,283 C256.566724,283 255,284.568069 255,286.5" id="Fill-204" fill="#D7DCF9"></path>
                <path d="M366,286.5 C366,288.431931 367.566724,290 369.500867,290 C371.433276,290 373,288.431931 373,286.5 C373,284.568069 371.433276,283 369.500867,283 C367.566724,283 366,284.568069 366,286.5" id="Fill-206" fill="#D7DCF9"></path>
                <path d="M106,286.5 C106,288.431931 107.566337,290 109.5,290 C111.431931,290 113,288.431931 113,286.5 C113,284.568069 111.431931,283 109.5,283 C107.566337,283 106,284.568069 106,286.5" id="Fill-208" fill="#D7DCF9"></path>
                <path d="M33,286.5 C33,288.431931 34.5667244,290 36.5008666,290 C38.4332756,290 40,288.431931 40,286.5 C40,284.568069 38.4332756,283 36.5008666,283 C34.5667244,283 33,284.568069 33,286.5" id="Fill-210" fill="#D7DCF9"></path>
                <path d="M216,286.5 C216,288.431931 217.566724,290 219.500867,290 C221.433276,290 223,288.431931 223,286.5 C223,284.568069 221.433276,283 219.500867,283 C217.566724,283 216,284.568069 216,286.5" id="Fill-212" fill="#D7DCF9"></path>
                <path d="M69,286.5 C69,288.431931 70.5667244,290 72.5008666,290 C74.4332756,290 76,288.431931 76,286.5 C76,284.568069 74.4332756,283 72.5008666,283 C70.5667244,283 69,284.568069 69,286.5" id="Fill-214" fill="#D7DCF9"></path>
                <path d="M145,286.5 C145,288.431931 146.566724,290 148.499133,290 C150.433276,290 152,288.431931 152,286.5 C152,284.568069 150.433276,283 148.499133,283 C146.566724,283 145,284.568069 145,286.5" id="Fill-216" fill="#D7DCF9"></path>
                <path d="M180,286.5 C180,288.431931 181.566724,290 183.500867,290 C185.433276,290 187,288.431931 187,286.5 C187,284.568069 185.433276,283 183.500867,283 C181.566724,283 180,284.568069 180,286.5" id="Fill-218" fill="#D7DCF9"></path>
                <path d="M33,240.5 C33,242.431931 34.5667244,244 36.5008666,244 C38.4332756,244 40,242.431931 40,240.5 C40,238.568069 38.4332756,237 36.5008666,237 C34.5667244,237 33,238.568069 33,240.5" id="Fill-220" fill="#D7DCF9"></path>
                <path d="M145,240.5 C145,242.431931 146.566724,244 148.499133,244 C150.433276,244 152,242.431931 152,240.5 C152,238.568069 150.433276,237 148.499133,237 C146.566724,237 145,238.568069 145,240.5" id="Fill-222" fill="#D7DCF9"></path>
                <path d="M106,240.5 C106,242.431931 107.566337,244 109.5,244 C111.431931,244 113,242.431931 113,240.5 C113,238.568069 111.431931,237 109.5,237 C107.566337,237 106,238.568069 106,240.5" id="Fill-224" fill="#D7DCF9"></path>
                <path d="M69,240.5 C69,242.431931 70.5667244,244 72.5008666,244 C74.4332756,244 76,242.431931 76,240.5 C76,238.568069 74.4332756,237 72.5008666,237 C70.5667244,237 69,238.568069 69,240.5" id="Fill-226" fill="#D7DCF9"></path>
                <path d="M255,240.5 C255,242.431931 256.566724,244 258.499133,244 C260.433276,244 262,242.431931 262,240.5 C262,238.568069 260.433276,237 258.499133,237 C256.566724,237 255,238.568069 255,240.5" id="Fill-228" fill="#D7DCF9"></path>
                <path d="M438,240.5 C438,242.431931 439.566724,244 441.500867,244 C443.433276,244 445,242.431931 445,240.5 C445,238.568069 443.433276,237 441.500867,237 C439.566724,237 438,238.568069 438,240.5" id="Fill-230" fill="#D7DCF9"></path>
                <path d="M216,240.5 C216,242.431931 217.566724,244 219.500867,244 C221.433276,244 223,242.431931 223,240.5 C223,238.568069 221.433276,237 219.500867,237 C217.566724,237 216,238.568069 216,240.5" id="Fill-232" fill="#D7DCF9"></path>
                <path d="M180,240.5 C180,242.431931 181.566724,244 183.500867,244 C185.433276,244 187,242.431931 187,240.5 C187,238.568069 185.433276,237 183.500867,237 C181.566724,237 180,238.568069 180,240.5" id="Fill-234" fill="#D7DCF9"></path>
                <path d="M402,240.5 C402,242.431931 403.566724,244 405.500867,244 C407.433276,244 409,242.431931 409,240.5 C409,238.568069 407.433276,237 405.500867,237 C403.566724,237 402,238.568069 402,240.5" id="Fill-236" fill="#D7DCF9"></path>
                <path d="M366,240.5 C366,242.431931 367.566724,244 369.500867,244 C371.433276,244 373,242.431931 373,240.5 C373,238.568069 371.433276,237 369.500867,237 C367.566724,237 366,238.568069 366,240.5" id="Fill-238" fill="#D7DCF9"></path>
                <path d="M327,240.5 C327,242.431931 328.566724,244 330.500867,244 C332.433276,244 334,242.431931 334,240.5 C334,238.568069 332.433276,237 330.500867,237 C328.566724,237 327,238.568069 327,240.5" id="Fill-240" fill="#D7DCF9"></path>
                <path d="M292,240.5 C292,242.431931 293.566724,244 295.500867,244 C297.433276,244 299,242.431931 299,240.5 C299,238.568069 297.433276,237 295.500867,237 C293.566724,237 292,238.568069 292,240.5" id="Fill-242" fill="#D7DCF9"></path>
                <path d="M327,192.5 C327,194.431931 328.566724,196 330.500867,196 C332.433276,196 334,194.431931 334,192.5 C334,190.568069 332.433276,189 330.500867,189 C328.566724,189 327,190.568069 327,192.5" id="Fill-244" fill="#D7DCF9"></path>
                <path d="M255,192.5 C255,194.431931 256.566724,196 258.499133,196 C260.433276,196 262,194.431931 262,192.5 C262,190.568069 260.433276,189 258.499133,189 C256.566724,189 255,190.568069 255,192.5" id="Fill-246" fill="#D7DCF9"></path>
                <path d="M292,192.5 C292,194.431931 293.566724,196 295.500867,196 C297.433276,196 299,194.431931 299,192.5 C299,190.568069 297.433276,189 295.500867,189 C293.566724,189 292,190.568069 292,192.5" id="Fill-248" fill="#D7DCF9"></path>
                <path d="M180,192.5 C180,194.431931 181.566724,196 183.500867,196 C185.433276,196 187,194.431931 187,192.5 C187,190.568069 185.433276,189 183.500867,189 C181.566724,189 180,190.568069 180,192.5" id="Fill-250" fill="#D7DCF9"></path>
                <path d="M216,192.5 C216,194.431931 217.566724,196 219.500867,196 C221.433276,196 223,194.431931 223,192.5 C223,190.568069 221.433276,189 219.500867,189 C217.566724,189 216,190.568069 216,192.5" id="Fill-252" fill="#D7DCF9"></path>
                <path d="M145,192.5 C145,194.431931 146.566724,196 148.499133,196 C150.433276,196 152,194.431931 152,192.5 C152,190.568069 150.433276,189 148.499133,189 C146.566724,189 145,190.568069 145,192.5" id="Fill-254" fill="#D7DCF9"></path>
                <path d="M69,192.5 C69,194.431931 70.5667244,196 72.5008666,196 C74.4332756,196 76,194.431931 76,192.5 C76,190.568069 74.4332756,189 72.5008666,189 C70.5667244,189 69,190.568069 69,192.5" id="Fill-256" fill="#D7DCF9"></path>
                <path d="M41,191.909748 C41,190.771767 40.4986979,189.74313 39.6935764,189 C38.4479167,191.306335 37.2022569,193.61267 36,195.941279 C36.2039931,195.967602 36.405816,196 36.6184896,196 C39.0381944,196 41,194.167486 41,191.909748" id="Fill-258" fill="#D7DCF9"></path>
                <path d="M106,192.5 C106,194.431931 107.566337,196 109.5,196 C111.431931,196 113,194.431931 113,192.5 C113,190.568069 111.431931,189 109.5,189 C107.566337,189 106,190.568069 106,192.5" id="Fill-260" fill="#D7DCF9"></path>
                <path d="M366,192.5 C366,194.431931 367.566724,196 369.500867,196 C371.433276,196 373,194.431931 373,192.5 C373,190.568069 371.433276,189 369.500867,189 C367.566724,189 366,190.568069 366,192.5" id="Fill-262" fill="#D7DCF9"></path>
                <path d="M402,192.5 C402,194.431931 403.566724,196 405.500867,196 C407.433276,196 409,194.431931 409,192.5 C409,190.568069 407.433276,189 405.500867,189 C403.566724,189 402,190.568069 402,192.5" id="Fill-264" fill="#D7DCF9"></path>
                <path d="M438,192.5 C438,194.431931 439.566724,196 441.500867,196 C443.433276,196 445,194.431931 445,192.5 C445,190.568069 443.433276,189 441.500867,189 C439.566724,189 438,190.568069 438,192.5" id="Fill-266" fill="#D7DCF9"></path>
                <path d="M145,145.498267 C145,147.431931 146.566724,149 148.499133,149 C150.433276,149 152,147.431931 152,145.498267 C152,143.568069 150.433276,142 148.499133,142 C146.566724,142 145,143.568069 145,145.498267" id="Fill-268" fill="#D7DCF9"></path>
                <path d="M438,145.498267 C438,147.431931 439.566724,149 441.500867,149 C443.433276,149 445,147.431931 445,145.498267 C445,143.568069 443.433276,142 441.500867,142 C439.566724,142 438,143.568069 438,145.498267" id="Fill-270" fill="#D7DCF9"></path>
                <path d="M402,145.498267 C402,147.431931 403.566724,149 405.500867,149 C407.433276,149 409,147.431931 409,145.498267 C409,143.568069 407.433276,142 405.500867,142 C403.566724,142 402,143.568069 402,145.498267" id="Fill-272" fill="#D7DCF9"></path>
                <path d="M216,145.498267 C216,147.431931 217.566724,149 219.500867,149 C221.433276,149 223,147.431931 223,145.498267 C223,143.568069 221.433276,142 219.500867,142 C217.566724,142 216,143.568069 216,145.498267" id="Fill-274" fill="#D7DCF9"></path>
                <path d="M106,145.498267 C106,147.431931 107.566337,149 109.5,149 C111.431931,149 113,147.431931 113,145.498267 C113,143.568069 111.431931,142 109.5,142 C107.566337,142 106,143.568069 106,145.498267" id="Fill-276" fill="#D7DCF9"></path>
                <path d="M366,145.498267 C366,147.431931 367.566724,149 369.500867,149 C371.433276,149 373,147.431931 373,145.498267 C373,143.568069 371.433276,142 369.500867,142 C367.566724,142 366,143.568069 366,145.498267" id="Fill-278" fill="#D7DCF9"></path>
                <path d="M69,145.498267 C69,147.431931 70.5667244,149 72.5008666,149 C74.4332756,149 76,147.431931 76,145.498267 C76,143.568069 74.4332756,142 72.5008666,142 C70.5667244,142 69,143.568069 69,145.498267" id="Fill-280" fill="#D7DCF9"></path>
                <path d="M180,145.498267 C180,147.431931 181.566724,149 183.500867,149 C185.433276,149 187,147.431931 187,145.498267 C187,143.568069 185.433276,142 183.500867,142 C181.566724,142 180,143.568069 180,145.498267" id="Fill-282" fill="#D7DCF9"></path>
                <path d="M292,145.498267 C292,147.431931 293.566724,149 295.500867,149 C297.433276,149 299,147.431931 299,145.498267 C299,143.568069 297.433276,142 295.500867,142 C293.566724,142 292,143.568069 292,145.498267" id="Fill-284" fill="#D7DCF9"></path>
                <path d="M255,145.498267 C255,147.431931 256.566724,149 258.499133,149 C260.433276,149 262,147.431931 262,145.498267 C262,143.568069 260.433276,142 258.499133,142 C256.566724,142 255,143.568069 255,145.498267" id="Fill-286" fill="#D7DCF9"></path>
                <path d="M327,145.498267 C327,147.431931 328.566724,149 330.500867,149 C332.433276,149 334,147.431931 334,145.498267 C334,143.568069 332.433276,142 330.500867,142 C328.566724,142 327,143.568069 327,145.498267" id="Fill-288" fill="#D7DCF9"></path>
                <path d="M327,99.4991339 C327,101.432319 328.566724,103 330.500867,103 C332.433276,103 334,101.432319 334,99.4991339 C334,97.5694135 332.433276,96 330.500867,96 C328.566724,96 327,97.5694135 327,99.4991339" id="Fill-290" fill="#D7DCF9"></path>
                <path d="M292,99.4991339 C292,101.432319 293.566724,103 295.500867,103 C297.433276,103 299,101.432319 299,99.4991339 C299,97.5694135 297.433276,96 295.500867,96 C293.566724,96 292,97.5694135 292,99.4991339" id="Fill-292" fill="#D7DCF9"></path>
                <path d="M180,99.4991339 C180,101.432319 181.566724,103 183.500867,103 C185.433276,103 187,101.432319 187,99.4991339 C187,97.5694135 185.433276,96 183.500867,96 C181.566724,96 180,97.5694135 180,99.4991339" id="Fill-294" fill="#D7DCF9"></path>
                <path d="M106,99.4991339 C106,101.432319 107.566337,103 109.5,103 C111.431931,103 113,101.432319 113,99.4991339 C113,97.5694135 111.431931,96 109.5,96 C107.566337,96 106,97.5694135 106,99.4991339" id="Fill-296" fill="#D7DCF9"></path>
                <path d="M145,99.4991339 C145,101.432319 146.566724,103 148.499133,103 C150.433276,103 152,101.432319 152,99.4991339 C152,97.5694135 150.433276,96 148.499133,96 C146.566724,96 145,97.5694135 145,99.4991339" id="Fill-298" fill="#D7DCF9"></path>
                <path d="M255,99.4991339 C255,101.432319 256.566724,103 258.499133,103 C260.433276,103 262,101.432319 262,99.4991339 C262,97.5694135 260.433276,96 258.499133,96 C256.566724,96 255,97.5694135 255,99.4991339" id="Fill-300" fill="#D7DCF9"></path>
                <path d="M438,99.4991339 C438,101.432319 439.566724,103 441.500867,103 C443.433276,103 445,101.432319 445,99.4991339 C445,97.5694135 443.433276,96 441.500867,96 C439.566724,96 438,97.5694135 438,99.4991339" id="Fill-302" fill="#D7DCF9"></path>
                <path d="M216,99.4991339 C216,101.432319 217.566724,103 219.500867,103 C221.433276,103 223,101.432319 223,99.4991339 C223,97.5694135 221.433276,96 219.500867,96 C217.566724,96 216,97.5694135 216,99.4991339" id="Fill-304" fill="#D7DCF9"></path>
                <path d="M402,99.4991339 C402,101.432319 403.566724,103 405.500867,103 C407.433276,103 409,101.432319 409,99.4991339 C409,97.5694135 407.433276,96 405.500867,96 C403.566724,96 402,97.5694135 402,99.4991339" id="Fill-306" fill="#D7DCF9"></path>
                <path d="M366,99.4991339 C366,101.432319 367.566724,103 369.500867,103 C371.433276,103 373,101.432319 373,99.4991339 C373,97.5694135 371.433276,96 369.500867,96 C367.566724,96 366,97.5694135 366,99.4991339" id="Fill-308" fill="#D7DCF9"></path>
                <path d="M255,51.4982673 C255,53.4319307 256.566724,55 258.499133,55 C260.433276,55 262,53.4319307 262,51.4982673 C262,49.5680693 260.433276,48 258.499133,48 C256.566724,48 255,49.5680693 255,51.4982673" id="Fill-310" fill="#D7DCF9"></path>
                <path d="M327,51.4982673 C327,53.4319307 328.566724,55 330.500867,55 C332.433276,55 334,53.4319307 334,51.4982673 C334,49.5680693 332.433276,48 330.500867,48 C328.566724,48 327,49.5680693 327,51.4982673" id="Fill-312" fill="#D7DCF9"></path>
                <path d="M438,51.4982673 C438,53.4319307 439.566724,55 441.500867,55 C443.433276,55 445,53.4319307 445,51.4982673 C445,49.5680693 443.433276,48 441.500867,48 C439.566724,48 438,49.5680693 438,51.4982673" id="Fill-314" fill="#D7DCF9"></path>
                <path d="M366,51.4982673 C366,53.4319307 367.566724,55 369.500867,55 C371.433276,55 373,53.4319307 373,51.4982673 C373,49.5680693 371.433276,48 369.500867,48 C367.566724,48 366,49.5680693 366,51.4982673" id="Fill-316" fill="#D7DCF9"></path>
                <path d="M180,51.4982673 C180,53.4319307 181.566724,55 183.500867,55 C185.433276,55 187,53.4319307 187,51.4982673 C187,49.5680693 185.433276,48 183.500867,48 C181.566724,48 180,49.5680693 180,51.4982673" id="Fill-318" fill="#D7DCF9"></path>
                <path d="M216,51.4982673 C216,53.4319307 217.566724,55 219.500867,55 C221.433276,55 223,53.4319307 223,51.4982673 C223,49.5680693 221.433276,48 219.500867,48 C217.566724,48 216,49.5680693 216,51.4982673" id="Fill-320" fill="#D7DCF9"></path>
                <path d="M292,51.4982673 C292,53.4319307 293.566724,55 295.500867,55 C297.433276,55 299,53.4319307 299,51.4982673 C299,49.5680693 297.433276,48 295.500867,48 C293.566724,48 292,49.5680693 292,51.4982673" id="Fill-322" fill="#D7DCF9"></path>
                <path d="M402,51.4982673 C402,53.4319307 403.566724,55 405.500867,55 C407.433276,55 409,53.4319307 409,51.4982673 C409,49.5680693 407.433276,48 405.500867,48 C403.566724,48 402,49.5680693 402,51.4982673" id="Fill-324" fill="#D7DCF9"></path>
                <g id="Group-328" transform="translate(328.000000, 0.000000)">
                    <mask id="mask-12" fill="white">
                        <use xlink:href="#path-11"></use>
                    </mask>
                    <g id="Clip-327"></g>
                    <path d="M0.37436,3.55544 C0.37436,5.37660667 1.85089333,6.85477333 3.67369333,6.85477333 C5.49486,6.85477333 6.97139333,5.37660667 6.97139333,3.55544 C6.97139333,1.73427333 5.49486,0.256106667 3.67369333,0.256106667 C1.85089333,0.256106667 0.37436,1.73427333 0.37436,3.55544" id="Fill-326" fill="#D7DCF9" mask="url(#mask-12)"></path>
                </g>
                <g id="Group-331" transform="translate(292.000000, 0.000000)">
                    <mask id="mask-14" fill="white">
                        <use xlink:href="#path-13"></use>
                    </mask>
                    <g id="Clip-330"></g>
                    <path d="M6.98488,3.55544 C6.98488,1.73427333 5.46616,0.256106667 3.59296,0.256106667 C1.71808,0.256106667 0.19936,1.73427333 0.19936,3.55544 C0.19936,5.37660667 1.71808,6.85477333 3.59296,6.85477333 C5.46616,6.85477333 6.98488,5.37660667 6.98488,3.55544" id="Fill-329" fill="#D7DCF9" mask="url(#mask-14)"></path>
                </g>
                <g id="Group-334" transform="translate(363.000000, 0.000000)">
                    <mask id="mask-16" fill="white">
                        <use xlink:href="#path-15"></use>
                    </mask>
                    <g id="Clip-333"></g>
                    <path d="M0.81056,3.55544 C0.81056,5.37660667 2.25696,6.85477333 4.04256,6.85477333 C5.82656,6.85477333 7.27296,5.37660667 7.27296,3.55544 C7.27296,1.73427333 5.82656,0.256106667 4.04256,0.256106667 C2.25696,0.256106667 0.81056,1.73427333 0.81056,3.55544" id="Fill-332" fill="#D7DCF9" mask="url(#mask-16)"></path>
                </g>
                <g id="Group-337" transform="translate(438.000000, 0.000000)">
                    <mask id="mask-18" fill="white">
                        <use xlink:href="#path-17"></use>
                    </mask>
                    <g id="Clip-336"></g>
                    <path d="M0.102984,3.55544 C0.102984,5.37660667 1.621704,6.85477333 3.496584,6.85477333 C5.369784,6.85477333 6.888504,5.37660667 6.888504,3.55544 C6.888504,1.73427333 5.369784,0.256106667 3.496584,0.256106667 C1.621704,0.256106667 0.102984,1.73427333 0.102984,3.55544" id="Fill-335" fill="#D7DCF9" mask="url(#mask-18)"></path>
                </g>
                <g id="Group-340" transform="translate(402.000000, 0.000000)">
                    <mask id="mask-20" fill="white">
                        <use xlink:href="#path-19"></use>
                    </mask>
                    <g id="Clip-339"></g>
                    <path d="M0.113703333,3.55544 C0.113703333,5.37660667 1.59023667,6.85477333 3.41303667,6.85477333 C5.23420333,6.85477333 6.71073667,5.37660667 6.71073667,3.55544 C6.71073667,1.73427333 5.23420333,0.256106667 3.41303667,0.256106667 C1.59023667,0.256106667 0.113703333,1.73427333 0.113703333,3.55544" id="Fill-338" fill="#D7DCF9" mask="url(#mask-20)"></path>
                </g>
                <path d="M262,2 C259.657057,2.93734209 257.325645,3.91005558 255,4.89792825 C255.707304,6.16624558 256.837452,7 258.125206,7 C260.243273,7 261.959638,4.77160182 262,2" id="Fill-341" fill="#D7DCF9"></path>
                <path d="M477,713.608984 C477,715.181215 477.982669,716.506891 479.34662,717 C480.52513,716.757019 481.700173,716.499745 482.873484,716.247831 C483.561525,715.586779 484,714.652374 484,713.608984 C484,711.616896 482.433276,710 480.500867,710 C478.566724,710 477,711.616896 477,713.608984" id="Fill-343" fill="#D7DCF9"></path>
                <path d="M549,665.5 C549,667.431931 550.566724,669 552.500867,669 C554.433276,669 556,667.431931 556,665.5 C556,663.568069 554.433276,662 552.500867,662 C550.566724,662 549,663.568069 549,665.5" id="Fill-345" fill="#D7DCF9"></path>
                <path d="M513,665.5 C513,667.431931 514.566724,669 516.500867,669 C518.433276,669 520,667.431931 520,665.5 C520,663.568069 518.433276,662 516.500867,662 C514.566724,662 513,663.568069 513,665.5" id="Fill-347" fill="#D7DCF9"></path>
                <path d="M587,665.5 C587,667.431931 588.564991,669 590.500867,669 C592.433276,669 594,667.431931 594,665.5 C594,663.568069 592.433276,662 590.500867,662 C588.564991,662 587,663.568069 587,665.5" id="Fill-349" fill="#D7DCF9"></path>
                <path d="M477,665.5 C477,667.431931 478.566724,669 480.500867,669 C482.433276,669 484,667.431931 484,665.5 C484,663.568069 482.433276,662 480.500867,662 C478.566724,662 477,663.568069 477,665.5" id="Fill-351" fill="#D7DCF9"></path>
                <path d="M477,617.5 C477,619.431931 478.566724,621 480.500867,621 C482.433276,621 484,619.431931 484,617.5 C484,615.568069 482.433276,614 480.500867,614 C478.566724,614 477,615.568069 477,617.5" id="Fill-353" fill="#D7DCF9"></path>
                <path d="M587,617.5 C587,619.431931 588.564991,621 590.500867,621 C592.433276,621 594,619.431931 594,617.5 C594,615.568069 592.433276,614 590.500867,614 C588.564991,614 587,615.568069 587,617.5" id="Fill-355" fill="#D7DCF9"></path>
                <path d="M513,617.5 C513,619.431931 514.566724,621 516.500867,621 C518.433276,621 520,619.431931 520,617.5 C520,615.568069 518.433276,614 516.500867,614 C514.566724,614 513,615.568069 513,617.5" id="Fill-357" fill="#D7DCF9"></path>
                <path d="M549,617.5 C549,619.431931 550.566724,621 552.500867,621 C554.433276,621 556,619.431931 556,617.5 C556,615.568069 554.433276,614 552.500867,614 C550.566724,614 549,615.568069 549,617.5" id="Fill-359" fill="#D7DCF9"></path>
                <path d="M659,618.215862 C659,619.288611 659.406665,620.257007 660.061044,621 C662.053082,619.059034 664.040991,617.113894 666,615.137448 C665.252728,614.436196 664.265998,614 663.169861,614 C660.864052,614 659,615.88879 659,618.215862" id="Fill-361" fill="#D7DCF9"></path>
                <path d="M623,617.5 C623,619.431931 624.566724,621 626.500867,621 C628.433276,621 630,619.431931 630,617.5 C630,615.568069 628.433276,614 626.500867,614 C624.566724,614 623,615.568069 623,617.5" id="Fill-363" fill="#D7DCF9"></path>
                <path d="M477,571.5 C477,573.431931 478.566724,575 480.500867,575 C482.433276,575 484,573.431931 484,571.5 C484,569.568069 482.433276,568 480.500867,568 C478.566724,568 477,569.568069 477,571.5" id="Fill-365" fill="#D7DCF9"></path>
                <path d="M549,571.5 C549,573.431931 550.566724,575 552.500867,575 C554.433276,575 556,573.431931 556,571.5 C556,569.568069 554.433276,568 552.500867,568 C550.566724,568 549,569.568069 549,571.5" id="Fill-367" fill="#D7DCF9"></path>
                <path d="M659,571.5 C659,573.431931 660.564991,575 662.500867,575 C664.433276,575 666,573.431931 666,571.5 C666,569.568069 664.433276,568 662.500867,568 C660.564991,568 659,569.568069 659,571.5" id="Fill-369" fill="#D7DCF9"></path>
                <path d="M623,571.5 C623,573.431931 624.566724,575 626.500867,575 C628.433276,575 630,573.431931 630,571.5 C630,569.568069 628.433276,568 626.500867,568 C624.566724,568 623,569.568069 623,571.5" id="Fill-371" fill="#D7DCF9"></path>
                <path d="M587,571.5 C587,573.431931 588.564991,575 590.500867,575 C592.433276,575 594,573.431931 594,571.5 C594,569.568069 592.433276,568 590.500867,568 C588.564991,568 587,569.568069 587,571.5" id="Fill-373" fill="#D7DCF9"></path>
                <path d="M513,571.5 C513,573.431931 514.566724,575 516.500867,575 C518.433276,575 520,573.431931 520,571.5 C520,569.568069 518.433276,568 516.500867,568 C514.566724,568 513,569.568069 513,571.5" id="Fill-375" fill="#D7DCF9"></path>
                <path d="M697,571.5 C697,573.431931 698.566724,575 700.500867,575 C701.02773,575 701.523397,574.873515 701.974003,574.663861 C702.639515,573.764604 703.29636,572.85495 703.954939,571.950495 C703.97227,571.799752 704,571.654208 704,571.5 C704,569.568069 702.433276,568 700.500867,568 C698.566724,568 697,569.568069 697,571.5" id="Fill-377" fill="#D7DCF9"></path>
                <path d="M587,524.5 C587,526.431931 588.564991,528 590.500867,528 C592.433276,528 594,526.431931 594,524.5 C594,522.568069 592.433276,521 590.500867,521 C588.564991,521 587,522.568069 587,524.5" id="Fill-379" fill="#D7DCF9"></path>
                <path d="M623,524.5 C623,526.431931 624.566724,528 626.500867,528 C628.433276,528 630,526.431931 630,524.5 C630,522.568069 628.433276,521 626.500867,521 C624.566724,521 623,522.568069 623,524.5" id="Fill-381" fill="#D7DCF9"></path>
                <path d="M549,524.5 C549,526.431931 550.566724,528 552.500867,528 C554.433276,528 556,526.431931 556,524.5 C556,522.568069 554.433276,521 552.500867,521 C550.566724,521 549,522.568069 549,524.5" id="Fill-383" fill="#D7DCF9"></path>
                <path d="M477,524.5 C477,526.431931 478.566724,528 480.500867,528 C482.433276,528 484,526.431931 484,524.5 C484,522.568069 482.433276,521 480.500867,521 C478.566724,521 477,522.568069 477,524.5" id="Fill-385" fill="#D7DCF9"></path>
                <path d="M513,524.5 C513,526.431931 514.566724,528 516.500867,528 C518.433276,528 520,526.431931 520,524.5 C520,522.568069 518.433276,521 516.500867,521 C514.566724,521 513,522.568069 513,524.5" id="Fill-387" fill="#D7DCF9"></path>
                <path d="M659,524.5 C659,526.431931 660.564991,528 662.500867,528 C664.433276,528 666,526.431931 666,524.5 C666,522.568069 664.433276,521 662.500867,521 C660.564991,521 659,522.568069 659,524.5" id="Fill-389" fill="#D7DCF9"></path>
                <path d="M697,524.5 C697,526.431931 698.566724,528 700.500867,528 C702.433276,528 704,526.431931 704,524.5 C704,522.568069 702.433276,521 700.500867,521 C698.566724,521 697,522.568069 697,524.5" id="Fill-391" fill="#D7DCF9"></path>
                <path d="M477,476.5 C477,478.431931 478.566724,480 480.500867,480 C482.433276,480 484,478.431931 484,476.5 C484,474.568069 482.433276,473 480.500867,473 C478.566724,473 477,474.568069 477,476.5" id="Fill-393" fill="#D7DCF9"></path>
                <path d="M513,476.5 C513,478.431931 514.566724,480 516.500867,480 C518.433276,480 520,478.431931 520,476.5 C520,474.568069 518.433276,473 516.500867,473 C514.566724,473 513,474.568069 513,476.5" id="Fill-395" fill="#D7DCF9"></path>
                <path d="M659,476.5 C659,478.431931 660.564991,480 662.500867,480 C664.433276,480 666,478.431931 666,476.5 C666,474.568069 664.433276,473 662.500867,473 C660.564991,473 659,474.568069 659,476.5" id="Fill-397" fill="#D7DCF9"></path>
                <path d="M734,476.5 C734,478.431931 735.566724,480 737.500867,480 C739.435009,480 741,478.431931 741,476.5 C741,474.568069 739.435009,473 737.500867,473 C735.566724,473 734,474.568069 734,476.5" id="Fill-399" fill="#D7DCF9"></path>
                <path d="M697,476.5 C697,478.431931 698.566724,480 700.500867,480 C702.433276,480 704,478.431931 704,476.5 C704,474.568069 702.433276,473 700.500867,473 C698.566724,473 697,474.568069 697,476.5" id="Fill-401" fill="#D7DCF9"></path>
                <path d="M549,476.5 C549,478.431931 550.566724,480 552.500867,480 C554.433276,480 556,478.431931 556,476.5 C556,474.568069 554.433276,473 552.500867,473 C550.566724,473 549,474.568069 549,476.5" id="Fill-403" fill="#D7DCF9"></path>
                <path d="M623,476.5 C623,478.431931 624.566724,480 626.500867,480 C628.433276,480 630,478.431931 630,476.5 C630,474.568069 628.433276,473 626.500867,473 C624.566724,473 623,474.568069 623,476.5" id="Fill-405" fill="#D7DCF9"></path>
                <path d="M587,476.5 C587,478.431931 588.564991,480 590.500867,480 C592.433276,480 594,478.431931 594,476.5 C594,474.568069 592.433276,473 590.500867,473 C588.564991,473 587,474.568069 587,476.5" id="Fill-407" fill="#D7DCF9"></path>
                <path d="M477,430.5 C477,432.431931 478.566724,434 480.500867,434 C482.433276,434 484,432.431931 484,430.5 C484,428.568069 482.433276,427 480.500867,427 C478.566724,427 477,428.568069 477,430.5" id="Fill-409" fill="#D7DCF9"></path>
                <path d="M513,430.5 C513,432.431931 514.566724,434 516.500867,434 C518.433276,434 520,432.431931 520,430.5 C520,428.568069 518.433276,427 516.500867,427 C514.566724,427 513,428.568069 513,430.5" id="Fill-411" fill="#D7DCF9"></path>
                <path d="M734,430.5 C734,432.431931 735.566724,434 737.500867,434 C739.435009,434 741,432.431931 741,430.5 C741,428.568069 739.435009,427 737.500867,427 C735.566724,427 734,428.568069 734,430.5" id="Fill-413" fill="#D7DCF9"></path>
                <path d="M549,430.5 C549,432.431931 550.566724,434 552.500867,434 C554.433276,434 556,432.431931 556,430.5 C556,428.568069 554.433276,427 552.500867,427 C550.566724,427 549,428.568069 549,430.5" id="Fill-415" fill="#D7DCF9"></path>
                <path d="M623,430.5 C623,432.431931 624.566724,434 626.500867,434 C628.433276,434 630,432.431931 630,430.5 C630,428.568069 628.433276,427 626.500867,427 C624.566724,427 623,428.568069 623,430.5" id="Fill-417" fill="#D7DCF9"></path>
                <path d="M659,430.5 C659,432.431931 660.564991,434 662.500867,434 C664.433276,434 666,432.431931 666,430.5 C666,428.568069 664.433276,427 662.500867,427 C660.564991,427 659,428.568069 659,430.5" id="Fill-419" fill="#D7DCF9"></path>
                <path d="M587,430.5 C587,432.431931 588.564991,434 590.500867,434 C592.433276,434 594,432.431931 594,430.5 C594,428.568069 592.433276,427 590.500867,427 C588.564991,427 587,428.568069 587,430.5" id="Fill-421" fill="#D7DCF9"></path>
                <path d="M697,430.5 C697,432.431931 698.566724,434 700.500867,434 C702.433276,434 704,432.431931 704,430.5 C704,428.568069 702.433276,427 700.500867,427 C698.566724,427 697,428.568069 697,430.5" id="Fill-423" fill="#D7DCF9"></path>
                <path d="M477,382.499134 C477,384.430586 478.566724,386 480.500867,386 C482.433276,386 484,384.430586 484,382.499134 C484,380.567681 482.433276,379 480.500867,379 C478.566724,379 477,380.567681 477,382.499134" id="Fill-427" fill="#D7DCF9"></path>
                <path d="M734,382.499134 C734,384.430586 735.566724,386 737.500867,386 C739.435009,386 741,384.430586 741,382.499134 C741,380.567681 739.435009,379 737.500867,379 C735.566724,379 734,380.567681 734,382.499134" id="Fill-429" fill="#D7DCF9"></path>
                <path d="M697,382.499134 C697,384.430586 698.566724,386 700.500867,386 C702.433276,386 704,384.430586 704,382.499134 C704,380.567681 702.433276,379 700.500867,379 C698.566724,379 697,380.567681 697,382.499134" id="Fill-431" fill="#D7DCF9"></path>
                <path d="M623,382.499134 C623,384.430586 624.566724,386 626.500867,386 C628.433276,386 630,384.430586 630,382.499134 C630,380.567681 628.433276,379 626.500867,379 C624.566724,379 623,380.567681 623,382.499134" id="Fill-433" fill="#D7DCF9"></path>
                <path d="M587,382.499134 C587,384.430586 588.564991,386 590.500867,386 C592.433276,386 594,384.430586 594,382.499134 C594,380.567681 592.433276,379 590.500867,379 C588.564991,379 587,380.567681 587,382.499134" id="Fill-435" fill="#D7DCF9"></path>
                <path d="M549,382.499134 C549,384.430586 550.566724,386 552.500867,386 C554.433276,386 556,384.430586 556,382.499134 C556,380.567681 554.433276,379 552.500867,379 C550.566724,379 549,380.567681 549,382.499134" id="Fill-437" fill="#D7DCF9"></path>
                <path d="M513,382.499134 C513,384.430586 514.566724,386 516.500867,386 C518.433276,386 520,384.430586 520,382.499134 C520,380.567681 518.433276,379 516.500867,379 C514.566724,379 513,380.567681 513,382.499134" id="Fill-439" fill="#D7DCF9"></path>
                <path d="M659,382.499134 C659,384.430586 660.564991,386 662.500867,386 C664.433276,386 666,384.430586 666,382.499134 C666,380.567681 664.433276,379 662.500867,379 C660.564991,379 659,380.567681 659,382.499134" id="Fill-441" fill="#D7DCF9"></path>
                <path d="M477,334.499134 C477,336.432319 478.566724,338 480.500867,338 C482.433276,338 484,336.432319 484,334.499134 C484,332.567681 482.433276,331 480.500867,331 C478.566724,331 477,332.567681 477,334.499134" id="Fill-445" fill="#D7DCF9"></path>
                <path d="M549,334.499134 C549,336.432319 550.566724,338 552.500867,338 C554.433276,338 556,336.432319 556,334.499134 C556,332.567681 554.433276,331 552.500867,331 C550.566724,331 549,332.567681 549,334.499134" id="Fill-447" fill="#D7DCF9"></path>
                <path d="M587,334.499134 C587,336.432319 588.564991,338 590.500867,338 C592.433276,338 594,336.432319 594,334.499134 C594,332.567681 592.433276,331 590.500867,331 C588.564991,331 587,332.567681 587,334.499134" id="Fill-449" fill="#D7DCF9"></path>
                <path d="M623,334.499134 C623,336.432319 624.566724,338 626.500867,338 C628.433276,338 630,336.432319 630,334.499134 C630,332.567681 628.433276,331 626.500867,331 C624.566724,331 623,332.567681 623,334.499134" id="Fill-451" fill="#D7DCF9"></path>
                <path d="M659,334.499134 C659,336.432319 660.564991,338 662.500867,338 C664.433276,338 666,336.432319 666,334.499134 C666,332.567681 664.433276,331 662.500867,331 C660.564991,331 659,332.567681 659,334.499134" id="Fill-453" fill="#D7DCF9"></path>
                <path d="M513,334.499134 C513,336.432319 514.566724,338 516.500867,338 C518.433276,338 520,336.432319 520,334.499134 C520,332.567681 518.433276,331 516.500867,331 C514.566724,331 513,332.567681 513,334.499134" id="Fill-455" fill="#D7DCF9"></path>
                <path d="M697,334.499134 C697,336.432319 698.566724,338 700.500867,338 C702.433276,338 704,336.432319 704,334.499134 C704,332.567681 702.433276,331 700.500867,331 C698.566724,331 697,332.567681 697,334.499134" id="Fill-457" fill="#D7DCF9"></path>
                <path d="M734,334.499134 C734,336.432319 735.566724,338 737.500867,338 C739.435009,338 741,336.432319 741,334.499134 C741,332.567681 739.435009,331 737.500867,331 C735.566724,331 734,332.567681 734,334.499134" id="Fill-459" fill="#D7DCF9"></path>
                <path d="M477,286.5 C477,288.431931 478.566724,290 480.500867,290 C482.433276,290 484,288.431931 484,286.5 C484,284.568069 482.433276,283 480.500867,283 C478.566724,283 477,284.568069 477,286.5" id="Fill-461" fill="#D7DCF9"></path>
                <path d="M513,286.5 C513,288.431931 514.566724,290 516.500867,290 C518.433276,290 520,288.431931 520,286.5 C520,284.568069 518.433276,283 516.500867,283 C514.566724,283 513,284.568069 513,286.5" id="Fill-463" fill="#D7DCF9"></path>
                <path d="M659,286.5 C659,288.431931 660.564991,290 662.500867,290 C664.433276,290 666,288.431931 666,286.5 C666,284.568069 664.433276,283 662.500867,283 C660.564991,283 659,284.568069 659,286.5" id="Fill-465" fill="#D7DCF9"></path>
                <path d="M734,286.5 C734,288.431931 735.566724,290 737.500867,290 C739.435009,290 741,288.431931 741,286.5 C741,284.568069 739.435009,283 737.500867,283 C735.566724,283 734,284.568069 734,286.5" id="Fill-467" fill="#D7DCF9"></path>
                <path d="M549,286.5 C549,288.431931 550.566724,290 552.500867,290 C554.433276,290 556,288.431931 556,286.5 C556,284.568069 554.433276,283 552.500867,283 C550.566724,283 549,284.568069 549,286.5" id="Fill-469" fill="#D7DCF9"></path>
                <path d="M697,286.5 C697,288.431931 698.566724,290 700.500867,290 C702.433276,290 704,288.431931 704,286.5 C704,284.568069 702.433276,283 700.500867,283 C698.566724,283 697,284.568069 697,286.5" id="Fill-471" fill="#D7DCF9"></path>
                <path d="M623,286.5 C623,288.431931 624.566724,290 626.500867,290 C628.433276,290 630,288.431931 630,286.5 C630,284.568069 628.433276,283 626.500867,283 C624.566724,283 623,284.568069 623,286.5" id="Fill-473" fill="#D7DCF9"></path>
                <path d="M587,286.5 C587,288.431931 588.564991,290 590.500867,290 C592.433276,290 594,288.431931 594,286.5 C594,284.568069 592.433276,283 590.500867,283 C588.564991,283 587,284.568069 587,286.5" id="Fill-475" fill="#D7DCF9"></path>
                <path d="M734,240.5 C734,242.431931 735.566724,244 737.500867,244 C739.435009,244 741,242.431931 741,240.5 C741,238.568069 739.435009,237 737.500867,237 C735.566724,237 734,238.568069 734,240.5" id="Fill-477" fill="#D7DCF9"></path>
                <path d="M623,240.5 C623,242.431931 624.566724,244 626.500867,244 C628.433276,244 630,242.431931 630,240.5 C630,238.568069 628.433276,237 626.500867,237 C624.566724,237 623,238.568069 623,240.5" id="Fill-479" fill="#D7DCF9"></path>
                <path d="M659,240.5 C659,242.431931 660.564991,244 662.500867,244 C664.433276,244 666,242.431931 666,240.5 C666,238.568069 664.433276,237 662.500867,237 C660.564991,237 659,238.568069 659,240.5" id="Fill-481" fill="#D7DCF9"></path>
                <path d="M697,240.5 C697,242.431931 698.566724,244 700.500867,244 C702.433276,244 704,242.431931 704,240.5 C704,238.568069 702.433276,237 700.500867,237 C698.566724,237 697,238.568069 697,240.5" id="Fill-483" fill="#D7DCF9"></path>
                <path d="M513,240.5 C513,242.431931 514.566724,244 516.500867,244 C518.433276,244 520,242.431931 520,240.5 C520,238.568069 518.433276,237 516.500867,237 C514.566724,237 513,238.568069 513,240.5" id="Fill-485" fill="#D7DCF9"></path>
                <path d="M549,240.5 C549,242.431931 550.566724,244 552.500867,244 C554.433276,244 556,242.431931 556,240.5 C556,238.568069 554.433276,237 552.500867,237 C550.566724,237 549,238.568069 549,240.5" id="Fill-487" fill="#D7DCF9"></path>
                <path d="M587,240.5 C587,242.431931 588.564991,244 590.500867,244 C592.433276,244 594,242.431931 594,240.5 C594,238.568069 592.433276,237 590.500867,237 C588.564991,237 587,238.568069 587,240.5" id="Fill-489" fill="#D7DCF9"></path>
                <path d="M477,240.5 C477,242.431931 478.566724,244 480.500867,244 C482.433276,244 484,242.431931 484,240.5 C484,238.568069 482.433276,237 480.500867,237 C478.566724,237 477,238.568069 477,240.5" id="Fill-491" fill="#D7DCF9"></path>
                <path d="M513,192.5 C513,194.431931 514.566724,196 516.500867,196 C518.433276,196 520,194.431931 520,192.5 C520,190.568069 518.433276,189 516.500867,189 C514.566724,189 513,190.568069 513,192.5" id="Fill-493" fill="#D7DCF9"></path>
                <path d="M477,192.5 C477,194.431931 478.566724,196 480.500867,196 C482.433276,196 484,194.431931 484,192.5 C484,190.568069 482.433276,189 480.500867,189 C478.566724,189 477,190.568069 477,192.5" id="Fill-495" fill="#D7DCF9"></path>
                <path d="M587,192.5 C587,194.431931 588.564991,196 590.500867,196 C592.433276,196 594,194.431931 594,192.5 C594,190.568069 592.433276,189 590.500867,189 C588.564991,189 587,190.568069 587,192.5" id="Fill-497" fill="#D7DCF9"></path>
                <path d="M549,192.5 C549,194.431931 550.566724,196 552.500867,196 C554.433276,196 556,194.431931 556,192.5 C556,190.568069 554.433276,189 552.500867,189 C550.566724,189 549,190.568069 549,192.5" id="Fill-499" fill="#D7DCF9"></path>
                <path d="M623,192.5 C623,194.431931 624.566724,196 626.500867,196 C628.433276,196 630,194.431931 630,192.5 C630,190.568069 628.433276,189 626.500867,189 C624.566724,189 623,190.568069 623,192.5" id="Fill-501" fill="#D7DCF9"></path>
                <path d="M697,192.5 C697,194.431931 698.566724,196 700.500867,196 C702.433276,196 704,194.431931 704,192.5 C704,190.568069 702.433276,189 700.500867,189 C698.566724,189 697,190.568069 697,192.5" id="Fill-503" fill="#D7DCF9"></path>
                <path d="M737.381779,196 C737.59436,196 737.796095,195.967593 738,195.943287 C736.798265,193.611979 735.553145,191.307002 734.308026,189 C733.503254,189.741319 733,190.770255 733,191.908565 C733,194.168981 734.963124,196 737.381779,196" id="Fill-505" fill="#D7DCF9"></path>
                <path d="M659,192.5 C659,194.431931 660.564991,196 662.500867,196 C664.433276,196 666,194.431931 666,192.5 C666,190.568069 664.433276,189 662.500867,189 C660.564991,189 659,190.568069 659,192.5" id="Fill-507" fill="#D7DCF9"></path>
                <path d="M623,145.498267 C623,147.431931 624.566724,149 626.500867,149 C628.433276,149 630,147.431931 630,145.498267 C630,143.568069 628.433276,142 626.500867,142 C624.566724,142 623,143.568069 623,145.498267" id="Fill-509" fill="#D7DCF9"></path>
                <path d="M549,145.498267 C549,147.431931 550.566724,149 552.500867,149 C554.433276,149 556,147.431931 556,145.498267 C556,143.568069 554.433276,142 552.500867,142 C550.566724,142 549,143.568069 549,145.498267" id="Fill-511" fill="#D7DCF9"></path>
                <path d="M659,145.498267 C659,147.431931 660.564991,149 662.500867,149 C664.433276,149 666,147.431931 666,145.498267 C666,143.568069 664.433276,142 662.500867,142 C660.564991,142 659,143.568069 659,145.498267" id="Fill-513" fill="#D7DCF9"></path>
                <path d="M697,145.498267 C697,147.431931 698.566724,149 700.500867,149 C702.433276,149 704,147.431931 704,145.498267 C704,143.568069 702.433276,142 700.500867,142 C698.566724,142 697,143.568069 697,145.498267" id="Fill-515" fill="#D7DCF9"></path>
                <path d="M587,145.498267 C587,147.431931 588.564991,149 590.500867,149 C592.433276,149 594,147.431931 594,145.498267 C594,143.568069 592.433276,142 590.500867,142 C588.564991,142 587,143.568069 587,145.498267" id="Fill-517" fill="#D7DCF9"></path>
                <path d="M477,145.498267 C477,147.431931 478.566724,149 480.500867,149 C482.433276,149 484,147.431931 484,145.498267 C484,143.568069 482.433276,142 480.500867,142 C478.566724,142 477,143.568069 477,145.498267" id="Fill-519" fill="#D7DCF9"></path>
                <path d="M513,145.498267 C513,147.431931 514.566724,149 516.500867,149 C518.433276,149 520,147.431931 520,145.498267 C520,143.568069 518.433276,142 516.500867,142 C514.566724,142 513,143.568069 513,145.498267" id="Fill-521" fill="#D7DCF9"></path>
                <path d="M477,99.4991339 C477,101.432319 478.566724,103 480.500867,103 C482.433276,103 484,101.432319 484,99.4991339 C484,97.5694135 482.433276,96 480.500867,96 C478.566724,96 477,97.5694135 477,99.4991339" id="Fill-523" fill="#D7DCF9"></path>
                <path d="M587,99.4991339 C587,101.432319 588.564991,103 590.500867,103 C592.433276,103 594,101.432319 594,99.4991339 C594,97.5694135 592.433276,96 590.500867,96 C588.564991,96 587,97.5694135 587,99.4991339" id="Fill-525" fill="#D7DCF9"></path>
                <path d="M659,99.4991339 C659,101.432319 660.564991,103 662.500867,103 C664.433276,103 666,101.432319 666,99.4991339 C666,97.5694135 664.433276,96 662.500867,96 C660.564991,96 659,97.5694135 659,99.4991339" id="Fill-527" fill="#D7DCF9"></path>
                <path d="M623,99.4991339 C623,101.432319 624.566724,103 626.500867,103 C628.433276,103 630,101.432319 630,99.4991339 C630,97.5694135 628.433276,96 626.500867,96 C624.566724,96 623,97.5694135 623,99.4991339" id="Fill-529" fill="#D7DCF9"></path>
                <path d="M513,99.4991339 C513,101.432319 514.566724,103 516.500867,103 C518.433276,103 520,101.432319 520,99.4991339 C520,97.5694135 518.433276,96 516.500867,96 C514.566724,96 513,97.5694135 513,99.4991339" id="Fill-531" fill="#D7DCF9"></path>
                <path d="M549,99.4991339 C549,101.432319 550.566724,103 552.500867,103 C554.433276,103 556,101.432319 556,99.4991339 C556,97.5694135 554.433276,96 552.500867,96 C550.566724,96 549,97.5694135 549,99.4991339" id="Fill-533" fill="#D7DCF9"></path>
                <path d="M513,51.4982673 C513,53.4319307 514.566724,55 516.500867,55 C518.433276,55 520,53.4319307 520,51.4982673 C520,49.5680693 518.433276,48 516.500867,48 C514.566724,48 513,49.5680693 513,51.4982673" id="Fill-535" fill="#D7DCF9"></path>
                <path d="M587,51.4982673 C587,53.4319307 588.564991,55 590.500867,55 C592.433276,55 594,53.4319307 594,51.4982673 C594,49.5680693 592.433276,48 590.500867,48 C588.564991,48 587,49.5680693 587,51.4982673" id="Fill-537" fill="#D7DCF9"></path>
                <path d="M549,51.4982673 C549,53.4319307 550.566724,55 552.500867,55 C554.433276,55 556,53.4319307 556,51.4982673 C556,49.5680693 554.433276,48 552.500867,48 C550.566724,48 549,49.5680693 549,51.4982673" id="Fill-539" fill="#D7DCF9"></path>
                <path d="M477,51.4982673 C477,53.4319307 478.566724,55 480.500867,55 C482.433276,55 484,53.4319307 484,51.4982673 C484,49.5680693 482.433276,48 480.500867,48 C478.566724,48 477,49.5680693 477,51.4982673" id="Fill-541" fill="#D7DCF9"></path>
                <g id="Group-545" transform="translate(475.000000, 0.000000)">
                    <mask id="mask-22" fill="white">
                        <use xlink:href="#path-21"></use>
                    </mask>
                    <g id="Clip-544"></g>
                    <path d="M0.54176,3.55544 C0.54176,5.37660667 1.98816,6.85477333 3.77376,6.85477333 C5.55776,6.85477333 7.00416,5.37660667 7.00416,3.55544 C7.00416,1.73427333 5.55776,0.256106667 3.77376,0.256106667 C1.98816,0.256106667 0.54176,1.73427333 0.54176,3.55544" id="Fill-543" fill="#D7DCF9" mask="url(#mask-22)"></path>
                </g>
                <path d="M516.87373,7 C518.161131,7 519.29289,6.16624558 520,4.89792825 C517.673072,3.90752906 515.344222,2.93734209 513,2 C513.044194,4.76907529 514.756245,7 516.87373,7" id="Fill-546" fill="#D7DCF9"></path>
            </g>
        </g>
    </g>
</svg>