<?xml version="1.0" encoding="UTF-8"?>
<svg width="59px" height="61px" viewBox="0 0 59 61" version="1.1" xmlns="http://www.w3.org/2000/svg" xmlns:xlink="http://www.w3.org/1999/xlink">
    <!-- Generator: Sketch 53 (72520) - https://sketchapp.com -->
    <desc>Created with Sketch.</desc>
    <g id="Symbols" stroke="none" stroke-width="1" fill="none" fill-rule="evenodd">
        <g id="Cards-/-Feature-/-Dark" transform="translate(-308.000000, -13.000000)" fill-rule="nonzero">
            <g id="Feature" transform="translate(0.000000, 13.000000)">
                <g id="Icon-Copy-2" transform="translate(308.000000, 0.000000)">
                    <circle id="Oval" fill-opacity="0.3" fill="#23CBFD" cx="27" cy="27" r="27"></circle>
                    <circle id="Oval-Copy" fill-opacity="0.3" fill="#23CBFD" cx="32" cy="34" r="27"></circle>
                    <path d="M29.805,40.26 C27.6383225,40.26 25.9526727,39.7140055 24.748,38.622 C23.5433273,37.5299945 22.8976671,36.0740091 22.811,34.254 L25.957,34.254 C26.0610005,35.2940052 26.4163303,36.1216636 27.023,36.737 C27.6296697,37.3523364 28.530994,37.66 29.727,37.66 C30.9056726,37.66 31.7896637,37.3956693 32.379,36.867 C32.9683363,36.3383307 33.263,35.5973381 33.263,34.644 C33.263,32.6159899 32.1450112,31.602 29.909,31.602 L28.479,31.602 L28.479,29.132 L29.805,29.132 C31.867677,29.132 32.899,28.2220091 32.899,26.402 C32.899,25.6219961 32.6520025,24.9893358 32.158,24.504 C31.6639975,24.0186642 30.9490047,23.776 30.013,23.776 C29.0423285,23.776 28.2493364,24.0489973 27.634,24.595 C27.0186636,25.1410027 26.6590005,25.8906619 26.555,26.844 L23.487,26.844 C23.5736671,25.1799917 24.2063274,23.8150053 25.385,22.749 C26.5636726,21.6829947 28.123657,21.15 30.065,21.15 C31.9543428,21.15 33.4493278,21.6266619 34.55,22.58 C35.6506722,23.5333381 36.201,24.7206596 36.201,26.142 C36.201,28.083343 35.1956767,29.4353295 33.185,30.198 C34.2943389,30.4580013 35.1696635,30.9736628 35.811,31.745 C36.4523365,32.5163372 36.773,33.499994 36.773,34.696 C36.773,36.4120086 36.144673,37.7683283 34.888,38.765 C33.6313271,39.7616716 31.9370107,40.26 29.805,40.26 Z" id="3" fill="#FFFFFF"></path>
                </g>
            </g>
        </g>
    </g>
</svg>