<?xml version="1.0" encoding="UTF-8"?>
<svg width="46px" height="47px" viewBox="0 0 46 47" version="1.1" xmlns="http://www.w3.org/2000/svg" xmlns:xlink="http://www.w3.org/1999/xlink">
    <!-- Generator: Sketch 55 (78076) - https://sketchapp.com -->
    <title>Asset 6 Copy</title>
    <desc>Created with Sketch.</desc>
    <g id="Website" stroke="none" stroke-width="1" fill="none" fill-rule="evenodd">
        <g id="Landing-5" transform="translate(-798.000000, -2319.000000)">
            <g id="Group-10" transform="translate(0.000000, 1053.000000)">
                <g id="Group-4" transform="translate(116.000000, 1183.000000)">
                    <g id="Group-5-Copy-2" transform="translate(682.000000, 83.000000)">
                        <g id="Asset-6-Copy">
                            <circle id="Oval" fill="#23CBFD" fill-rule="nonzero" opacity="0.4" cx="22.74" cy="24.26" r="22.74"></circle>
                            <path d="M22.74,16.23 L22.74,32.29" id="Path" stroke="#23CBFD" stroke-width="3.21"></path>
                            <path d="M14.71,24.26 L30.77,24.26" id="Path" stroke="#23CBFD" stroke-width="3.21"></path>
                            <circle id="Oval" fill="#23CBFD" fill-rule="nonzero" opacity="0.4" cx="22.74" cy="24.26" r="17.88"></circle>
                            <path d="M22.74,17.95 L22.74,30.58" id="Path" stroke="#23CBFD" stroke-width="2.53"></path>
                            <path d="M16.42,24.26 L29.05,24.26" id="Path" stroke="#23CBFD" stroke-width="2.53"></path>
                            <circle id="Oval" fill="#3B54EC" fill-rule="nonzero" cx="22.74" cy="24.26" r="11.57"></circle>
                            <circle id="Oval" fill="#3B54EC" fill-rule="nonzero" cx="29.25" cy="2.53" r="2.53"></circle>
                            <circle id="Oval" fill="#3B54EC" fill-rule="nonzero" cx="41.88" cy="35.63" r="2.53"></circle>
                            <circle id="Oval" fill="#3B54EC" fill-rule="nonzero" cx="5.51" cy="39.42" r="2.53"></circle>
                            <path d="M27,20.8629811 L27,29 L20,29 L20,20.8629811 L23.5,18 L27,20.8629811 Z M23.5,22.0587386 C24.0271809,22.0587386 24.4545455,21.6693474 24.4545455,21.1890089 C24.4545455,20.7086705 24.0271809,20.3192792 23.5,20.3192792 C22.9728191,20.3192792 22.5454545,20.7086705 22.5454545,21.1890089 C22.5454545,21.6693474 22.9728191,22.0587386 23.5,22.0587386 Z" id="Combined-Shape" fill="#23CBFD" transform="translate(23.500000, 23.500000) rotate(-315.000000) translate(-23.500000, -23.500000) "></path>
                        </g>
                    </g>
                </g>
            </g>
        </g>
    </g>
</svg>