<?xml version="1.0" encoding="UTF-8"?>
<svg width="41px" height="44px" viewBox="0 0 41 44" version="1.1" xmlns="http://www.w3.org/2000/svg" xmlns:xlink="http://www.w3.org/1999/xlink">
    <!-- Generator: Sketch 53 (72520) - https://sketchapp.com -->
    <title>Asset 4</title>
    <desc>Created with Sketch.</desc>
    <g id="Website" stroke="none" stroke-width="1" fill="none" fill-rule="evenodd">
        <g id="Landing-5" transform="translate(-798.000000, -2408.000000)" fill-rule="nonzero">
            <g id="Group-10" transform="translate(0.000000, 1204.000000)">
                <g id="Group-5-Copy-2" transform="translate(798.000000, 1204.000000)">
                    <g id="Asset-4">
                        <path d="M18.32,33.12 C18.32,36.23 18.32,39.35 18.32,42.46 C18.32,42.88 18.2,43.03 17.77,43.03 C13.0433333,43.03 8.31666667,43.03 3.59,43.03 C3.18,43.03 3.05,42.9 3.05,42.49 C3.05,36.23 3.05,29.9733333 3.05,23.72 C3.05,23.32 3.17,23.18 3.58,23.18 C8.32,23.18 13.0633333,23.18 17.81,23.18 C18.2,23.18 18.32,23.3 18.32,23.69 C18.31,26.84 18.32,30 18.32,33.12 Z" id="Path" fill="#23CBFD" opacity="0.4"></path>
                        <path d="M21.74,33.08 C21.74,29.97 21.74,26.85 21.74,23.74 C21.74,23.32 21.85,23.18 22.29,23.18 C27.0166667,23.18 31.7433333,23.18 36.47,23.18 C36.88,23.18 37.01,23.31 37.01,23.71 C37.01,29.97 37.01,36.2266667 37.01,42.48 C37.01,42.88 36.89,43.02 36.48,43.02 C31.7533333,43.02 27.0266667,43.02 22.3,43.02 C21.87,43.02 21.75,42.88 21.75,42.46 C21.75,39.34 21.74,36.21 21.74,33.08 Z" id="Path" fill="#23CBFD" opacity="0.4"></path>
                        <path d="M19.46,6.43 C19.9118461,5.53795692 20.426474,4.67912985 21,3.86 C21.74877,2.73202686 22.709985,1.76062235 23.83,1 C25.4461784,-0.0958159685 27.5119333,-0.284641821 29.3,0.5 C30.8702601,1.15278161 31.9766984,2.58916836 32.2071065,4.27402817 C32.4375147,5.95888798 31.7573459,7.63959705 30.42,8.69 C29.219753,9.64991719 27.8069862,10.3082939 26.3,10.61 C24.1432119,11.0780995 21.9345963,11.2629912 19.73,11.16 C18.63,11.16 17.53,11.16 16.42,11.16 C14.1060554,11.0949616 11.833778,10.5285982 9.76,9.5 C8.0263195,8.6921156 6.87469848,6.99923271 6.76,5.09 C6.61717488,2.55852938 8.47975647,0.357695951 11,0.08 C12.9627786,-0.187548258 14.9311189,0.530933377 16.26,2 C17.4516843,3.17818292 18.462616,4.52609183 19.26,6 L19.46,6.43 Z M27,2.85 C26.268145,2.8176191 25.5519253,3.06829602 25,3.55 C23.5924165,4.78858996 22.4845483,6.33071518 21.76,8.06 C21.62,8.34 21.83,8.33 22,8.32 C23.470688,8.26205899 24.9300386,8.03728544 26.35,7.65 C27.2936212,7.42622173 28.1517999,6.9328558 28.82,6.23 C29.2669189,5.71950916 29.4245527,5.01725074 29.2386931,4.36472209 C29.0528336,3.71219344 28.548829,3.19838926 27.9,3 C27.6094026,2.9044049 27.3058932,2.85381999 27,2.85 Z M9.56,4.85 C9.53768818,5.52810303 9.84281524,6.17556778 10.38,6.59 C10.8872318,7.00049173 11.4626475,7.3186628 12.08,7.53 C13.6439517,8.03126809 15.2688802,8.31722859 16.91,8.38 C17.15,8.38 17.23,8.38 17.1,8.1 C16.3706485,6.62497246 15.4120867,5.27488553 14.26,4.1 C13.5849336,3.31082447 12.5760136,2.88796827 11.54,2.96 C10.5030049,2.972641 9.64770337,3.77584293 9.57,4.81 L9.56,4.85 Z" id="Shape" fill="#3B54EC"></path>
                        <path d="M30.87,20.94 L22.33,20.94 C21.68,20.94 21.68,20.94 21.68,20.31 C21.68,17.8633333 21.68,15.4133333 21.68,12.96 C21.68,12.38 21.68,12.35 22.27,12.35 L39.47,12.35 C40.01,12.35 40.04,12.35 40.04,12.94 C40.04,15.4066667 40.04,17.87 40.04,20.33 C40.04,20.9 40.04,20.93 39.44,20.93 L30.87,20.94 Z" id="Path" fill="#23CBFD" opacity="0.4"></path>
                        <path d="M9.16,20.94 L0.58,20.94 C0.02,20.94 0,20.94 0,20.37 C0,17.89 0,15.4133333 0,12.94 C0,12.39 0,12.36 0.57,12.36 L17.77,12.36 C18.19,12.36 18.33,12.48 18.33,12.92 C18.33,15.41 18.33,17.92 18.33,20.39 C18.33,20.94 18.33,20.95 17.75,20.95 L9.16,20.94 Z" id="Path" fill="#23CBFD" opacity="0.4"></path>
                    </g>
                </g>
            </g>
        </g>
    </g>
</svg>