<?xml version="1.0" encoding="UTF-8"?>
<svg width="26px" height="36px" viewBox="0 0 26 36" version="1.1" xmlns="http://www.w3.org/2000/svg" xmlns:xlink="http://www.w3.org/1999/xlink">
    <!-- Generator: Sketch 53 (72520) - https://sketchapp.com -->
    <title>Icon</title>
    <desc>Created with Sketch.</desc>
    <g id="Website" stroke="none" stroke-width="1" fill="none" fill-rule="evenodd">
        <g id="Landing-5" transform="translate(-117.000000, -43.000000)">
            <g id="Nav" transform="translate(117.000000, 40.000000)">
                <g id="Nav-Logo" transform="translate(0.000000, 3.000000)">
                    <g id="Icon" transform="translate(0.000111, 0.980543)">
                        <path d="M25.2459822,4.20564819 C25.0485375,4.60741724 22.5687832,9.74407571 20.3549257,14.3224541 C16.2667193,11.6583263 11.0079478,11.3425524 10.5439183,11.3697268 C9.7844097,11.4141003 8.99566277,11.7553288 8.56259152,12.6039283 C8.37202641,12.9754271 6.80553992,16.2095303 5.07600675,19.784862 C2.47861117,18.0931666 0.352812647,15.4531175 0.227259821,11.3514959 C0.0786603126,6.48176613 4.67905343,1.4861396 10.8184146,0.398473748 C16.9584638,-0.68884812 23.219938,0.665746475 24.7960559,1.87002166 C25.4451468,2.40766294 25.5982181,3.49051306 25.2459822,4.20564819" id="Fill-1" fill="#3B54EA"></path>
                        <path d="M20.3550289,14.3224885 C18.6251517,17.8978202 17.0586652,21.1329553 16.8684441,21.5044541 C16.4346849,22.3523656 15.645938,22.6935941 14.8867733,22.7379676 C14.4220559,22.765486 9.16466031,22.4493681 5.07610994,19.7848964 C6.80564311,16.2095647 8.3721296,12.9754615 8.56235073,12.6039627 C8.99576596,11.7553632 9.78451289,11.4141347 10.5440215,11.3697612 C11.008051,11.3425868 16.2668225,11.6583607 20.3550289,14.3224885" id="Fill-3" fill="#1784FA"></path>
                        <path d="M14.6116579,33.7097022 C8.47160872,34.7973681 2.21116646,33.4417416 0.635048519,32.2384983 C-0.0143863704,31.7001691 -0.167801604,30.6180069 0.184434268,29.9025278 C0.382222966,29.5007588 2.86197727,24.3634123 5.07583476,19.7850339 C9.16472911,22.4495057 14.4221247,22.7656236 14.8868421,22.7381052 C15.6460067,22.6937317 16.4344097,22.3521593 16.8685129,21.5045917 C17.058734,21.1327489 18.6252205,17.8976138 20.3550977,14.3226261 C22.9524932,16.0146654 25.0776038,18.6543706 25.2028126,22.7559922 C25.3514122,27.6264099 20.751707,32.6220364 14.6116579,33.7097022" id="Fill-5" fill="#23C9FB"></path>
                    </g>
                </g>
            </g>
        </g>
    </g>
</svg>