<?xml version="1.0" encoding="UTF-8"?>
<svg width="119px" height="35px" viewBox="0 0 119 35" version="1.1" xmlns="http://www.w3.org/2000/svg" xmlns:xlink="http://www.w3.org/1999/xlink">
    <!-- Generator: Sketch 53 (72520) - https://sketchapp.com -->
    <title>Suplias Logo</title>
    <desc>Created with Sketch.</desc>
    <g id="Symbols" stroke="none" stroke-width="1" fill="none" fill-rule="evenodd">
        <g id="Logo-Circular">
            <g id="Nav-Logo">
                <path d="M100.869259,20.9883906 C101.203658,20.2937917 101.372347,19.5208024 101.372347,18.6899299 C101.372347,17.3477003 101.001232,16.2396497 100.27025,15.3948852 C99.5448902,14.5567359 98.6825953,14.1482456 97.6334203,14.1482456 C96.5832529,14.1482456 95.7047507,14.5577282 94.9496226,15.4001774 C94.1925098,16.2446111 93.8091574,17.3513387 93.8091574,18.6899299 C93.8091574,19.5396558 93.9639537,20.2888303 94.2685849,20.9139693 C94.5689162,21.5328238 95.0131287,22.041204 95.5876612,22.4281948 C96.6073985,23.1135324 98.135516,23.2511291 99.4949452,22.4960009 C100.091639,22.1625934 100.541143,21.6694283 100.869259,20.9883906 Z M104.138173,11.3116362 C104.367722,11.3116362 104.55394,11.4978548 104.55394,11.7274032 L104.55394,25.4807914 C104.55394,25.7093476 104.367722,25.8955662 104.138173,25.8955662 L101.559227,25.8955662 C101.328686,25.8955662 101.14346,25.7093476 101.14346,25.4807914 L101.14346,24.8910439 C100.720085,25.1989828 100.254373,25.4539998 99.7483084,25.6534489 C98.9478659,25.9670107 98.1024399,26.1251146 97.2328682,26.1251146 C96.3196361,26.1251146 95.4328649,25.9349268 94.5993463,25.5591819 C93.7661584,25.1844293 93.0255837,24.644296 92.3991217,23.9563123 C91.7753057,23.2726286 91.2794945,22.4619325 90.9272336,21.5467158 C90.5769573,20.6364605 90.4,19.6650144 90.4,18.6614844 C90.4,17.6596082 90.5769573,16.6802238 90.9272336,15.7507844 C91.2785022,14.8160528 91.7743135,13.9901417 92.3984602,13.2975274 C93.0226069,12.6016055 93.7602047,12.0475802 94.5904157,11.6529819 C96.1989082,10.8866078 98.0614255,10.8518779 99.7360702,11.5907987 C100.242135,11.8150549 100.71347,12.092233 101.14346,12.4190252 L101.14346,11.7274032 C101.14346,11.4978548 101.328686,11.3116362 101.559227,11.3116362 L104.138173,11.3116362 Z M39.6885279,16.792815 C41.0515955,17.0918233 42.1206162,17.6537868 42.86516,18.4638214 C43.6222728,19.2864249 44.0066175,20.3018623 44.0066175,21.4823496 C44.0066175,22.7296507 43.4962527,23.8674698 42.4890844,24.8630615 C41.4832391,25.8579917 40.0761802,26.3624028 38.3066069,26.3624028 C36.4235825,26.3624028 34.9242412,25.8775066 33.8502591,24.9212755 C32.7769384,23.9673598 32.1557686,22.9185155 32.0032876,21.8041804 C31.9804651,21.6368152 32.0783704,21.4763959 32.2377974,21.4201665 L34.8183976,20.5092497 C34.9192798,20.4728659 35.0320694,20.4860964 35.1236903,20.5419951 C35.2149805,20.5985553 35.2758405,20.693153 35.2897325,20.7996582 C35.3803611,21.5071567 35.6790387,22.075074 36.2039569,22.5361553 C36.7209369,22.9909522 37.4383583,23.2218236 38.3373677,23.2218236 C39.0170823,23.2218236 39.5529157,23.0607429 39.9296529,22.7435427 C40.2938212,22.4369269 40.4711093,22.0744125 40.4711093,21.6344999 C40.4711093,21.1310811 40.3050671,20.424244 38.8662552,20.0991056 L36.3782682,19.5530186 C35.1749583,19.294694 34.2117812,18.7671296 33.5165209,17.9845482 C32.8123299,17.1917132 32.4551076,16.2235747 32.4551076,15.1062628 C32.4551076,13.7511335 33.0114483,12.5686616 34.1072607,11.5915926 C35.1918272,10.6254386 36.5029652,10.1352503 38.0036295,10.1352503 C38.9724295,10.1352503 39.851924,10.281116 40.6179673,10.5678862 C41.3955873,10.8592869 42.0144418,11.2532237 42.4570005,11.7391121 C42.879052,12.2041626 43.2022059,12.6477136 43.4191853,13.0578577 C43.6331879,13.4653557 43.796584,13.890384 43.9050738,14.3213661 C43.9487343,14.4973312 43.853475,14.6779269 43.6841252,14.741433 L41.1640543,15.6824491 C41.0641644,15.7208174 40.9543516,15.7105638 40.8617385,15.6573113 C40.7701176,15.6040587 40.7069421,15.5130993 40.6887503,15.4082479 C40.6526973,15.1955684 40.5895219,14.9832196 40.500547,14.7764937 C40.41058,14.5704294 40.2660372,14.333935 40.0715496,14.0749489 C39.8975691,13.8440775 39.6356061,13.6522359 39.2916143,13.5057086 C38.9314151,13.3535584 38.497787,13.2758294 38.0036295,13.2758294 C37.376506,13.2758294 36.8803639,13.437241 36.4867579,13.7689946 C36.1120053,14.0855333 35.9300865,14.4437478 35.9300865,14.863484 C35.9300865,15.3401111 36.0739677,16.0049414 37.319615,16.2768273 L39.6885279,16.792815 Z M59.0666455,10.9466741 L59.0666455,22.848791 C59.0666455,23.7855072 59.1165904,24.6805474 59.2151573,25.5091046 C59.2277262,25.6099868 59.1959731,25.7115306 59.1284978,25.7876057 C59.0610225,25.8636808 58.9634479,25.9070105 58.8622349,25.9070105 L56.1298153,25.9070105 C55.9581502,25.9070105 55.8106306,25.7842981 55.779539,25.615279 C55.7388554,25.3930074 55.7080946,25.1360058 55.6869258,24.8462588 C55.3326804,25.22035 54.9020291,25.5282888 54.3996026,25.766437 C53.5654225,26.1620276 52.6564902,26.3621382 51.6969515,26.3621382 C49.9392856,26.3621382 48.5113888,25.7661062 47.4542755,24.5899188 C46.4067543,23.4246465 45.8755515,21.9296051 45.8755515,20.1464706 L45.8755515,10.9466741 C45.8755515,10.7498711 46.0349785,10.5907748 46.2314507,10.5907748 L49.0855905,10.5907748 C49.2823936,10.5907748 49.4414898,10.7498711 49.4414898,10.9466741 L49.4414898,19.7211115 C49.4414898,20.7302644 49.6882378,21.5670907 50.1741262,22.2090985 C50.6434766,22.8292761 51.3694978,23.1305997 52.3951888,23.1305997 C53.4298103,23.1305997 54.1862615,22.8382066 54.7068799,22.2365517 C55.2337828,21.62762 55.5007072,20.7921168 55.5007072,19.7518723 L55.5007072,10.9466741 C55.5007072,10.7498711 55.6598034,10.5907748 55.8566064,10.5907748 L58.7107462,10.5907748 C58.9075492,10.5907748 59.0666455,10.7498711 59.0666455,10.9466741 Z M72.7487124,18.2337769 C72.7487124,16.847556 72.3825596,15.6918758 71.6595152,14.7988201 C70.9440784,13.9176719 70.0063699,13.4886744 68.793468,13.4886744 C67.5980964,13.4886744 66.6597265,13.9186641 65.9247747,14.8027893 C65.1832077,15.6938604 64.8071321,16.8485483 64.8071321,18.2337769 C64.8071321,19.6600199 65.1832077,20.8348843 65.9247747,21.7259554 C66.6597265,22.6097497 67.5980964,23.0394087 68.793468,23.0394087 C69.9875165,23.0394087 70.9205943,22.6100805 71.6456232,21.7276092 C72.3775981,20.8355458 72.7487124,19.6600199 72.7487124,18.2337769 Z M69.3094557,10.2568051 C71.5159648,10.2568051 73.2683385,11.0254945 74.5176242,12.5423661 C75.7507025,14.0383998 76.3758415,15.9531773 76.3758415,18.2337769 C76.3758415,20.5348837 75.729203,22.4714915 74.4551103,23.9886939 C73.165141,25.5237573 71.4031752,26.3020388 69.2181656,26.3020388 C68.0922539,26.3020388 67.0751627,26.0628984 66.1956683,25.5918942 C65.6690962,25.309424 65.2152916,24.9763473 64.8375621,24.5963025 L64.8375621,31.3200195 C64.8375621,31.5168225 64.6784659,31.6762495 64.4816629,31.6762495 L61.6576224,31.6762495 C61.4608193,31.6762495 61.3017231,31.5168225 61.3017231,31.3200195 L61.3017231,10.9467733 C61.3017231,10.7499703 61.4608193,10.5908741 61.6576224,10.5908741 L64.420472,10.5908741 C64.617275,10.5908741 64.7763712,10.7499703 64.7763712,10.9467733 L64.7763712,12.1226299 C65.1580699,11.7042168 65.619482,11.339387 66.1569692,11.0327712 C67.0579631,10.5177758 68.1177225,10.2568051 69.3094557,10.2568051 Z M81.6062702,3.21254725 C81.8030732,3.21254725 81.9621694,3.37164347 81.9621694,3.56844648 L81.9621694,25.5511775 C81.9621694,25.7479805 81.8030732,25.9070767 81.6062702,25.9070767 L78.7514689,25.9070767 C78.5546658,25.9070767 78.3955696,25.7479805 78.3955696,25.5511775 L78.3955696,3.56844648 C78.3955696,3.37164347 78.5546658,3.21254725 78.7514689,3.21254725 L81.6062702,3.21254725 Z M86.3904124,3 C87.0502813,3 87.6241523,3.23318676 88.0961487,3.69327582 C88.5704605,4.1556802 88.810924,4.73715868 88.810924,5.42051166 C88.810924,6.08401895 88.5704605,6.65524383 88.0968102,7.11764822 C87.6241523,7.57773727 87.0502813,7.81092403 86.3904124,7.81092403 C85.7288896,7.81092403 85.1586571,7.57641423 84.6965834,7.1143406 C84.234179,6.65226698 84,6.08236515 84,5.42051166 C84,4.76064274 84.2335175,4.18677177 84.6929451,3.71477531 C85.1563417,3.24046351 85.7265743,3 86.3904124,3 Z M87.8174492,10.5907418 C88.0142522,10.5907418 88.1733484,10.749838 88.1733484,10.946641 L88.1733484,25.5510782 C88.1733484,25.7478812 88.0142522,25.9073082 87.8174492,25.9073082 L84.9934087,25.9073082 C84.7966057,25.9073082 84.6375095,25.7478812 84.6375095,25.5510782 L84.6375095,10.946641 C84.6375095,10.749838 84.7966057,10.5907418 84.9934087,10.5907418 L87.8174492,10.5907418 Z M117.365152,18.4637553 C118.121934,19.2863588 118.506278,20.3021269 118.506278,21.4822835 C118.506278,22.7295846 117.996244,23.8674037 116.989076,24.8633261 C115.983231,25.8579256 114.576172,26.3623366 112.806599,26.3623366 C110.923574,26.3623366 109.424233,25.8774405 108.350251,24.9212094 C107.27693,23.9676244 106.65576,22.9184493 106.503279,21.804445 C106.480457,21.636749 106.578693,21.4763298 106.737789,21.4201003 L109.31872,20.5095143 C109.419602,20.4727998 109.53173,20.4860302 109.623682,20.5419289 C109.714641,20.5984891 109.776163,20.6930869 109.790055,20.799592 C109.880353,21.5070906 110.17903,22.0750078 110.703949,22.5364199 C111.221259,22.9912168 111.938681,23.2217575 112.837359,23.2217575 C113.517074,23.2217575 114.052907,23.0606767 114.429645,22.7434766 C114.794144,22.4371915 114.971432,22.0743463 114.971432,21.6344337 C114.971432,21.1310149 114.805059,20.4241779 113.366247,20.0990395 L110.878591,19.5529524 C109.675281,19.2949586 108.711773,18.7670634 108.016512,17.9844821 C107.312322,17.1916471 106.955099,16.2238393 106.955099,15.1065274 C106.955099,13.7510674 107.51144,12.5689262 108.607252,11.5918572 C109.691819,10.6253725 111.002957,10.1351841 112.503621,10.1351841 C113.472421,10.1351841 114.351916,10.2810499 115.117959,10.56782 C115.89591,10.8592208 116.514433,11.2531575 116.957323,11.739046 C117.379044,12.2040965 117.702528,12.6476475 117.919177,13.0577915 C118.13318,13.4656203 118.296576,13.8903179 118.405065,14.3216307 C118.448726,14.497265 118.353467,14.6781915 118.184117,14.7413669 L115.664046,15.682383 C115.564156,15.7207513 115.454343,15.7104977 115.36173,15.6575759 C115.270109,15.6039925 115.206934,15.5130331 115.188742,15.4085126 C115.152689,15.1955022 115.089183,14.9834842 115.000539,14.7767584 C114.910572,14.5703633 114.76636,14.3341996 114.571541,14.0748827 C114.397561,13.8440113 114.135598,13.6521697 113.791606,13.5059732 C113.431407,13.3534922 112.997779,13.2757633 112.503621,13.2757633 C111.876498,13.2757633 111.380025,13.4375056 110.98675,13.7692592 C110.612328,14.0857979 110.430078,14.4440124 110.430078,14.8634178 C110.430078,15.3403757 110.573959,16.0048753 111.819607,16.2770919 L114.18852,16.7927489 C115.551587,17.0920879 116.620608,17.6537207 117.365152,18.4637553 Z" id="Combined-Shape" fill="#FFF"></path>
                <g id="Icon">
                    <path d="M25.2459822,4.20564819 C25.0485375,4.60741724 22.5687832,9.74407571 20.3549257,14.3224541 C16.2667193,11.6583263 11.0079478,11.3425524 10.5439183,11.3697268 C9.7844097,11.4141003 8.99566277,11.7553288 8.56259152,12.6039283 C8.37202641,12.9754271 6.80553992,16.2095303 5.07600675,19.784862 C2.47861117,18.0931666 0.352812647,15.4531175 0.227259821,11.3514959 C0.0786603126,6.48176613 4.67905343,1.4861396 10.8184146,0.398473748 C16.9584638,-0.68884812 23.219938,0.665746475 24.7960559,1.87002166 C25.4451468,2.40766294 25.5982181,3.49051306 25.2459822,4.20564819" id="Fill-1" fill="#3B54EA"></path>
                    <path d="M20.3550289,14.3224885 C18.6251517,17.8978202 17.0586652,21.1329553 16.8684441,21.5044541 C16.4346849,22.3523656 15.645938,22.6935941 14.8867733,22.7379676 C14.4220559,22.765486 9.16466031,22.4493681 5.07610994,19.7848964 C6.80564311,16.2095647 8.3721296,12.9754615 8.56235073,12.6039627 C8.99576596,11.7553632 9.78451289,11.4141347 10.5440215,11.3697612 C11.008051,11.3425868 16.2668225,11.6583607 20.3550289,14.3224885" id="Fill-3" fill="#1784FA"></path>
                    <path d="M14.6116579,33.7097022 C8.47160872,34.7973681 2.21116646,33.4417416 0.635048519,32.2384983 C-0.0143863704,31.7001691 -0.167801604,30.6180069 0.184434268,29.9025278 C0.382222966,29.5007588 2.86197727,24.3634123 5.07583476,19.7850339 C9.16472911,22.4495057 14.4221247,22.7656236 14.8868421,22.7381052 C15.6460067,22.6937317 16.4344097,22.3521593 16.8685129,21.5045917 C17.058734,21.1327489 18.6252205,17.8976138 20.3550977,14.3226261 C22.9524932,16.0146654 25.0776038,18.6543706 25.2028126,22.7559922 C25.3514122,27.6264099 20.751707,32.6220364 14.6116579,33.7097022" id="Fill-5" fill="#23C9FB"></path>
                </g>
            </g>
        </g>
    </g>
</svg>